<?xml version="1.0" encoding="utf-8"?>
<!-- Generator: Adobe Illustrator 27.8.1, SVG Export Plug-In . SVG Version: 6.00 Build 0)  -->
<svg version="1.1" id="Layer_1" xmlns="http://www.w3.org/2000/svg" xmlns:xlink="http://www.w3.org/1999/xlink" x="0px" y="0px"
	 viewBox="0 0 504 360" style="enable-background:new 0 0 504 360;" xml:space="preserve">
<style type="text/css">
	.st0{fill:#FFFFFF;}
	.st1{clip-path:url(#SVGID_00000016060935826333831410000009820771912158169250_);}
	.st2{fill:#FFFFFF;stroke:#FFFFFF;stroke-width:1.07;stroke-linecap:round;stroke-linejoin:round;stroke-miterlimit:10;}
	.st3{opacity:0.15;fill:#ED1C24;enable-background:new    ;}
	.st4{opacity:0.15;fill:#F7941D;enable-background:new    ;}
	.st5{opacity:0.15;fill:#FFF200;enable-background:new    ;}
	.st6{opacity:0.15;fill:#00A651;enable-background:new    ;}
	.st7{clip-path:url(#SVGID_00000175307593731004711460000010715378318320320407_);}
	.st8{display:none;fill:#FFFFFF;}
	.st9{fill:#60C659;stroke:#60C659;stroke-width:0.71;stroke-linecap:round;stroke-linejoin:round;stroke-miterlimit:10.0004;}
	.st10{fill:#60C659;stroke:#60C659;stroke-width:0.71;stroke-linecap:round;stroke-linejoin:round;stroke-miterlimit:10;}
	.st11{fill:#F9E814;stroke:#F9E814;stroke-width:0.71;stroke-linecap:round;stroke-linejoin:round;stroke-miterlimit:10;}
	.st12{fill:#FC7F3F;stroke:#FC7F3F;stroke-width:0.71;stroke-linecap:round;stroke-linejoin:round;stroke-miterlimit:10;}
	.st13{fill:#D81E05;stroke:#D81E05;stroke-width:0.71;stroke-linecap:round;stroke-linejoin:round;stroke-miterlimit:10;}
	.st14{fill:#CCE226;stroke:#CCE226;stroke-width:0.71;stroke-linecap:round;stroke-linejoin:round;stroke-miterlimit:10;}
	.st15{fill:none;stroke:#000000;stroke-width:1.07;stroke-linejoin:round;stroke-miterlimit:10;stroke-opacity:0.2;}
	.st16{clip-path:url(#SVGID_00000174592897202886303300000017523803695443974028_);}
	.st17{fill:none;stroke:#000000;stroke-width:1.07;stroke-linejoin:round;stroke-miterlimit:10;}
	.st18{fill:none;}
	.st19{fill:#4D4D4D;}
	.st20{font-family:'ArialMT';}
	.st21{font-size:8.8px;}
	.st22{fill:none;stroke:#333333;stroke-width:1.07;stroke-linejoin:round;stroke-miterlimit:10;}
	.st23{font-size:11px;}
	.st24{font-size:8.0002px;}
	.st25{fill:#FFFFFF;stroke:#000000;stroke-miterlimit:10;}
</style>
<rect y="0" class="st0" width="504" height="360"/>
<g>
	<g>
		<g>
			<defs>
				<rect id="SVGID_1_" y="0" width="504" height="360"/>
			</defs>
			<clipPath id="SVGID_00000165228988698793100320000007842057814526411404_">
				<use xlink:href="#SVGID_1_"  style="overflow:visible;"/>
			</clipPath>
			<g style="clip-path:url(#SVGID_00000165228988698793100320000007842057814526411404_);">
				<rect y="0" class="st2" width="504" height="360"/>
			</g>
		</g>
	</g>
</g>
<g>
	<polygon class="st3" points="498.6,328.5 331,328.5 331,150.1 498.6,95.4 	"/>
	<polygon class="st4" points="331,328.5 60.1,328.5 60.1,238.4 331,150.1 	"/>
	<polygon class="st5" points="331,150.1 60.1,238.4 60.1,5.5 331,5.5 	"/>
	<polygon class="st6" points="498.6,95.4 331,150.1 331,5.5 498.6,5.5 	"/>
</g>
<g>
	<g>
		<g>
			<defs>
				<rect id="SVGID_00000037677066418487275610000010980401313793467295_" x="60.1" y="5.5" width="438.5" height="323"/>
			</defs>
			<clipPath id="SVGID_00000115473783809485361570000011282222460079212928_">
				<use xlink:href="#SVGID_00000037677066418487275610000010980401313793467295_"  style="overflow:visible;"/>
			</clipPath>
			<g style="clip-path:url(#SVGID_00000115473783809485361570000011282222460079212928_);">
				<rect x="60.1" y="5.5" class="st8" width="438.5" height="323"/>
				
					<ellipse transform="matrix(0.1602 -0.9871 0.9871 0.1602 80.7994 369.8173)" class="st9" cx="257.7" cy="137.4" rx="1.9" ry="2"/>
				<circle class="st10" cx="219.3" cy="148.4" r="1.9"/>
				<circle class="st10" cx="287.3" cy="124.1" r="2"/>
				<circle class="st10" cx="349.5" cy="95.3" r="2"/>
				<circle class="st10" cx="341.8" cy="117.6" r="2"/>
				<circle class="st10" cx="246.7" cy="191.6" r="1.9"/>
				<circle class="st11" cx="348.5" cy="120.4" r="2"/>
				<circle class="st10" cx="360.8" cy="107.2" r="2"/>
				<circle class="st10" cx="330.8" cy="119.7" r="2"/>
				<circle class="st10" cx="359.1" cy="87.8" r="2"/>
				<circle class="st10" cx="335.8" cy="128" r="2"/>
				<circle class="st10" cx="150" cy="192.4" r="1.9"/>
				<circle class="st10" cx="253.9" cy="152.2" r="1.9"/>
				<circle class="st10" cx="327.1" cy="112.9" r="2"/>
				<circle class="st10" cx="377.3" cy="91.6" r="2"/>
				<circle class="st10" cx="349.9" cy="126.1" r="2"/>
				<circle class="st10" cx="271.8" cy="161.9" r="2"/>
				<circle class="st10" cx="271.8" cy="147.7" r="2"/>
				<circle class="st10" cx="331.4" cy="152.4" r="2"/>
				<circle class="st10" cx="299.9" cy="128.8" r="2"/>
				<circle class="st10" cx="296.7" cy="163.9" r="2"/>
				<circle class="st10" cx="271.7" cy="169.8" r="2"/>
				<circle class="st10" cx="348.8" cy="100.4" r="2"/>
				<circle class="st10" cx="397.4" cy="104.8" r="2"/>
				<circle class="st10" cx="381.6" cy="89.5" r="2"/>
				<circle class="st10" cx="347.4" cy="103.2" r="2"/>
				<circle class="st10" cx="369.2" cy="96" r="2"/>
				<circle class="st10" cx="266.1" cy="161.7" r="2"/>
				<circle class="st10" cx="348.9" cy="150.9" r="2"/>
				<circle class="st11" cx="208.5" cy="155.7" r="1.9"/>
				<circle class="st10" cx="175" cy="170.1" r="1.9"/>
				<circle class="st11" cx="204.6" cy="166.1" r="1.9"/>
				<circle class="st10" cx="129.6" cy="179.2" r="1.9"/>
				<circle class="st10" cx="186" cy="159.6" r="1.9"/>
				<circle class="st10" cx="247.3" cy="162.7" r="1.9"/>
				<circle class="st10" cx="172.8" cy="185.1" r="1.9"/>
				<circle class="st10" cx="169.6" cy="182.7" r="1.9"/>
				<circle class="st10" cx="177.5" cy="187.2" r="1.9"/>
				<circle class="st10" cx="230.5" cy="157.7" r="1.9"/>
				<circle class="st12" cx="264.1" cy="171.8" r="2"/>
				<circle class="st10" cx="313.1" cy="116.9" r="2"/>
				<circle class="st10" cx="274.2" cy="125.3" r="2"/>
				<circle class="st10" cx="276.7" cy="111" r="2"/>
				<circle class="st10" cx="281.7" cy="130.8" r="2"/>
				<circle class="st10" cx="300" cy="132.4" r="2"/>
				<circle class="st10" cx="327.6" cy="88.7" r="2"/>
				<circle class="st10" cx="383.5" cy="88.7" r="2"/>
				<circle class="st10" cx="316" cy="120.1" r="2"/>
				<circle class="st10" cx="366.7" cy="79.2" r="2"/>
				<circle class="st13" cx="387.5" cy="160.9" r="2"/>
				<circle class="st10" cx="271.8" cy="141.6" r="2"/>
				<circle class="st11" cx="265" cy="155.4" r="2"/>
				<circle class="st10" cx="154.8" cy="198.8" r="1.9"/>
				<circle class="st14" cx="157.2" cy="186.8" r="1.9"/>
				<circle class="st10" cx="332.3" cy="107.2" r="2"/>
				<circle class="st10" cx="250.6" cy="139.6" r="1.9"/>
				<circle class="st10" cx="271.5" cy="196.3" r="2"/>
				<circle class="st10" cx="271.8" cy="142.3" r="2"/>
				<circle class="st10" cx="277.7" cy="130.1" r="2"/>
				<circle class="st10" cx="290.4" cy="139" r="2"/>
				<circle class="st10" cx="276.4" cy="147.6" r="2"/>
				<circle class="st10" cx="279.8" cy="169.3" r="2"/>
				<circle class="st10" cx="217.3" cy="180.2" r="1.9"/>
				<circle class="st12" cx="345.7" cy="150.6" r="2"/>
				<circle class="st10" cx="406.4" cy="102.8" r="2"/>
				<circle class="st10" cx="247.9" cy="131.4" r="1.9"/>
				<circle class="st10" cx="230.8" cy="153.1" r="1.9"/>
				<circle class="st10" cx="303.9" cy="133.1" r="2"/>
				<circle class="st10" cx="276.2" cy="137.4" r="2"/>
				<circle class="st10" cx="226.1" cy="180.2" r="1.9"/>
				<circle class="st10" cx="270.2" cy="169.2" r="2"/>
				<circle class="st10" cx="268.9" cy="165.2" r="2"/>
				<circle class="st10" cx="156.4" cy="195.9" r="1.9"/>
				<circle class="st12" cx="381.9" cy="79.3" r="2"/>
				<circle class="st12" cx="328.9" cy="114.5" r="2"/>
				<circle class="st10" cx="306.9" cy="148.2" r="2"/>
				<circle class="st10" cx="274.8" cy="134.8" r="2"/>
				<circle class="st10" cx="263.7" cy="130.6" r="2"/>
				<circle class="st10" cx="316.6" cy="138.3" r="2"/>
				<circle class="st10" cx="374.8" cy="105.2" r="2"/>
				<circle class="st14" cx="369.2" cy="87.2" r="2"/>
				<circle class="st12" cx="353.1" cy="178.7" r="2"/>
				<circle class="st10" cx="305.1" cy="132.2" r="2"/>
				<circle class="st10" cx="278.6" cy="153.9" r="2"/>
				<circle class="st10" cx="341.2" cy="130.3" r="2"/>
				<circle class="st10" cx="312.4" cy="99.6" r="2"/>
				<circle class="st10" cx="206.9" cy="167.3" r="1.9"/>
				<circle class="st10" cx="317" cy="138.2" r="2"/>
				<circle class="st10" cx="284.6" cy="125.3" r="2"/>
				<circle class="st10" cx="397.9" cy="97.9" r="2"/>
				<circle class="st10" cx="343.8" cy="140" r="2"/>
				<circle class="st10" cx="331.4" cy="118.4" r="2"/>
				<circle class="st10" cx="329.4" cy="135.3" r="2"/>
				<circle class="st10" cx="243.1" cy="183" r="1.9"/>
				<circle class="st10" cx="289.2" cy="157.8" r="2"/>
				<circle class="st10" cx="399.7" cy="116.8" r="2"/>
				<circle class="st10" cx="365.6" cy="162" r="2"/>
				<circle class="st11" cx="288.4" cy="152.7" r="2"/>
				<circle class="st10" cx="348.3" cy="166.3" r="2"/>
				<circle class="st11" cx="359.7" cy="153.7" r="2"/>
				<circle class="st10" cx="389.4" cy="168.6" r="2"/>
				<circle class="st12" cx="345.6" cy="144.7" r="2"/>
				<circle class="st10" cx="372.8" cy="171.6" r="2"/>
				<circle class="st14" cx="329.6" cy="137.7" r="2"/>
				<circle class="st10" cx="392.2" cy="160.4" r="2"/>
				<circle class="st14" cx="381.5" cy="139.1" r="2"/>
				<circle class="st10" cx="348.1" cy="96.4" r="2"/>
				<circle class="st11" cx="396.9" cy="106.8" r="2"/>
				
					<ellipse transform="matrix(0.1602 -0.9871 0.9871 0.1602 76.3229 373.1202)" class="st9" cx="257.4" cy="141.7" rx="1.9" ry="2"/>
				<circle class="st11" cx="344.1" cy="150.6" r="2"/>
				<circle class="st10" cx="284" cy="165.8" r="2"/>
				<circle class="st10" cx="358.2" cy="136.2" r="2"/>
				<circle class="st10" cx="390.8" cy="120.1" r="2"/>
				<circle class="st10" cx="285.3" cy="129.9" r="2"/>
				<circle class="st10" cx="357.3" cy="132.3" r="2"/>
				<circle class="st10" cx="202.4" cy="185.1" r="1.9"/>
				<circle class="st10" cx="317.5" cy="145.6" r="2"/>
				<circle class="st10" cx="292.2" cy="155.2" r="2"/>
				<circle class="st10" cx="271.8" cy="153" r="2"/>
				<circle class="st10" cx="304.4" cy="139" r="2"/>
				<circle class="st10" cx="292.8" cy="145.5" r="2"/>
				<circle class="st10" cx="264" cy="193.8" r="2"/>
				<circle class="st10" cx="354.1" cy="125.6" r="2"/>
				<circle class="st10" cx="354.1" cy="157.3" r="2"/>
				<circle class="st14" cx="371.6" cy="144.3" r="2"/>
				<circle class="st12" cx="383.9" cy="144.4" r="2"/>
				<circle class="st10" cx="292.9" cy="147.1" r="2"/>
				<circle class="st10" cx="242.2" cy="209.5" r="1.9"/>
				<circle class="st10" cx="283.3" cy="115" r="2"/>
				
					<ellipse transform="matrix(0.1602 -0.9871 0.9871 0.1602 38.7952 403.9289)" class="st9" cx="256.8" cy="179.2" rx="1.9" ry="2"/>
				<circle class="st10" cx="263.7" cy="135.2" r="2"/>
				<circle class="st10" cx="153.9" cy="169.4" r="1.9"/>
				<circle class="st10" cx="224" cy="155.4" r="1.9"/>
				<circle class="st10" cx="239.4" cy="129.4" r="1.9"/>
				<circle class="st10" cx="225" cy="169.4" r="1.9"/>
				<circle class="st10" cx="271.7" cy="169.8" r="2"/>
				<circle class="st10" cx="269.8" cy="156.4" r="2"/>
				<circle class="st10" cx="304.3" cy="131.9" r="2"/>
				<circle class="st10" cx="146" cy="191.8" r="1.9"/>
				<circle class="st10" cx="214.3" cy="178.2" r="1.9"/>
				<circle class="st10" cx="154.4" cy="177.2" r="1.9"/>
				<circle class="st10" cx="380.5" cy="155.5" r="2"/>
				<circle class="st10" cx="300.1" cy="102.3" r="2"/>
				<circle class="st10" cx="284.8" cy="145.2" r="2"/>
				<circle class="st10" cx="268.5" cy="180.3" r="2"/>
				<circle class="st10" cx="236.5" cy="163.5" r="1.9"/>
				<circle class="st10" cx="309.3" cy="126" r="2"/>
				
					<ellipse transform="matrix(0.1602 -0.9871 0.9871 0.1602 40.3921 401.9544)" class="st9" cx="256.4" cy="177.2" rx="1.9" ry="2"/>
				<circle class="st10" cx="312.5" cy="160.9" r="2"/>
				<circle class="st10" cx="193.4" cy="185.9" r="1.9"/>
				<circle class="st10" cx="391" cy="134.2" r="2"/>
				<circle class="st10" cx="192.5" cy="175.2" r="1.9"/>
				<circle class="st10" cx="314" cy="127" r="2"/>
				<circle class="st10" cx="237.9" cy="147.7" r="1.9"/>
				<circle class="st11" cx="394.7" cy="101.3" r="2"/>
				<circle class="st10" cx="271.8" cy="116.7" r="2"/>
				<circle class="st10" cx="323" cy="113.5" r="2"/>
				<circle class="st10" cx="192.5" cy="172.1" r="1.9"/>
				<circle class="st10" cx="393.6" cy="106.2" r="2"/>
				<circle class="st10" cx="243.8" cy="129.7" r="1.9"/>
				<circle class="st10" cx="227.2" cy="152.3" r="1.9"/>
				<circle class="st10" cx="145" cy="218.4" r="1.9"/>
				<circle class="st10" cx="377.6" cy="140.9" r="2"/>
				<circle class="st10" cx="246.6" cy="203.1" r="1.9"/>
				<circle class="st10" cx="271.8" cy="117.9" r="2"/>
				<circle class="st10" cx="301.2" cy="138.1" r="2"/>
				<circle class="st10" cx="329.5" cy="118.6" r="2"/>
				<circle class="st10" cx="366.2" cy="93.6" r="2"/>
				<circle class="st10" cx="202.6" cy="168.6" r="1.9"/>
				<circle class="st10" cx="291.3" cy="108.1" r="2"/>
				<circle class="st10" cx="332.9" cy="91.8" r="2"/>
				<circle class="st10" cx="238.3" cy="117.8" r="1.9"/>
				<circle class="st10" cx="379.8" cy="98.6" r="2"/>
				<circle class="st10" cx="277.9" cy="176.7" r="2"/>
				<circle class="st10" cx="239.3" cy="142.6" r="1.9"/>
				<circle class="st10" cx="271" cy="125.6" r="2"/>
				<circle class="st10" cx="279.1" cy="115.1" r="2"/>
				<circle class="st10" cx="318.9" cy="186.1" r="2"/>
				<circle class="st13" cx="398" cy="247.3" r="2"/>
				<circle class="st10" cx="373.1" cy="95.8" r="2"/>
				<circle class="st10" cx="279.1" cy="125.1" r="2"/>
				
					<ellipse transform="matrix(0.1602 -0.9871 0.9871 0.1602 77.7907 366.9531)" class="st9" cx="254.5" cy="137.8" rx="1.9" ry="2"/>
				<circle class="st10" cx="322" cy="95.7" r="2"/>
				<circle class="st10" cx="277.5" cy="154.5" r="2"/>
				<circle class="st14" cx="430.9" cy="79.4" r="2"/>
				<circle class="st10" cx="357.4" cy="103" r="2"/>
				<circle class="st12" cx="274.1" cy="130.9" r="2"/>
				<circle class="st10" cx="274.4" cy="154.2" r="2"/>
				<circle class="st10" cx="279.3" cy="157" r="2"/>
				<circle class="st10" cx="285.2" cy="161.1" r="2"/>
				<circle class="st10" cx="270.7" cy="133.5" r="2"/>
				<circle class="st10" cx="342.4" cy="109.9" r="2"/>
				<circle class="st10" cx="264.5" cy="161.3" r="2"/>
				<circle class="st10" cx="281.6" cy="152.6" r="2"/>
				<circle class="st10" cx="283.5" cy="127.7" r="2"/>
				<circle class="st10" cx="295" cy="115" r="2"/>
				<circle class="st12" cx="359.6" cy="98.5" r="2"/>
				<circle class="st10" cx="341" cy="131.5" r="2"/>
				<circle class="st10" cx="280.8" cy="145.2" r="2"/>
				<circle class="st10" cx="271.8" cy="120.9" r="2"/>
				
					<ellipse transform="matrix(0.1602 -0.9871 0.9871 0.1602 66.5333 379.9582)" class="st9" cx="256.6" cy="150.9" rx="1.9" ry="2"/>
				<circle class="st10" cx="337" cy="156.2" r="2"/>
				<circle class="st10" cx="271.3" cy="147.1" r="2"/>
				<circle class="st14" cx="292.9" cy="240.7" r="2"/>
				<circle class="st10" cx="275.2" cy="140.2" r="2"/>
				<circle class="st10" cx="182.9" cy="191.9" r="1.9"/>
				<circle class="st10" cx="306.4" cy="118.4" r="2"/>
				<circle class="st10" cx="271.8" cy="110.6" r="2"/>
				<circle class="st10" cx="352.1" cy="95.4" r="2"/>
				<circle class="st10" cx="275.9" cy="147.4" r="2"/>
				<circle class="st10" cx="277.7" cy="155.9" r="2"/>
				<circle class="st10" cx="310.3" cy="138.9" r="2"/>
				<circle class="st10" cx="204.9" cy="190.8" r="1.9"/>
				<circle class="st10" cx="180.3" cy="203.4" r="1.9"/>
				<circle class="st10" cx="216.1" cy="171.6" r="1.9"/>
				<circle class="st10" cx="278.7" cy="157.1" r="2"/>
				<circle class="st10" cx="282.3" cy="134.9" r="2"/>
				<circle class="st12" cx="288.5" cy="211" r="2"/>
				<circle class="st10" cx="408.5" cy="125.1" r="2"/>
				<circle class="st10" cx="327.5" cy="160.4" r="2"/>
				<circle class="st10" cx="295.6" cy="124.2" r="2"/>
				<circle class="st10" cx="247" cy="161.1" r="1.9"/>
				<circle class="st10" cx="227.5" cy="201.5" r="1.9"/>
				<circle class="st10" cx="348.3" cy="170.2" r="2"/>
				<circle class="st10" cx="311.6" cy="131.3" r="2"/>
				<circle class="st10" cx="271.8" cy="145" r="2"/>
				<circle class="st10" cx="271.6" cy="138.2" r="2"/>
				<circle class="st11" cx="223.6" cy="219" r="1.9"/>
				<circle class="st10" cx="271.8" cy="158" r="2"/>
				<circle class="st10" cx="271.8" cy="168.3" r="2"/>
				<circle class="st10" cx="277.4" cy="188.6" r="2"/>
				<circle class="st10" cx="337.5" cy="135.4" r="2"/>
				<circle class="st10" cx="281.3" cy="120.6" r="2"/>
				<circle class="st11" cx="347.4" cy="137.7" r="2"/>
				<circle class="st10" cx="198.2" cy="226.6" r="1.9"/>
				<circle class="st10" cx="317.7" cy="107.6" r="2"/>
				<circle class="st10" cx="419.5" cy="94.2" r="2"/>
				<circle class="st10" cx="364.4" cy="134.9" r="2"/>
				<circle class="st10" cx="259" cy="132.3" r="2"/>
				<circle class="st10" cx="318.5" cy="98.4" r="2"/>
				<circle class="st10" cx="212.3" cy="157.9" r="1.9"/>
				<circle class="st10" cx="284.2" cy="113.1" r="2"/>
				<circle class="st10" cx="276.6" cy="125.3" r="2"/>
				<circle class="st10" cx="159.4" cy="170" r="1.9"/>
				<circle class="st10" cx="291.1" cy="159.1" r="2"/>
				
					<ellipse transform="matrix(0.1602 -0.9871 0.9871 0.1602 51.297 391.8033)" class="st9" cx="255.9" cy="165.8" rx="1.9" ry="2"/>
				<circle class="st10" cx="226.7" cy="156.3" r="1.9"/>
				<circle class="st10" cx="274" cy="144.6" r="2"/>
				<circle class="st10" cx="361.2" cy="116.6" r="2"/>
				<circle class="st10" cx="275.6" cy="137.9" r="2"/>
				<circle class="st10" cx="379.9" cy="99.3" r="2"/>
				<circle class="st10" cx="319.5" cy="130.6" r="2"/>
				<circle class="st10" cx="298.8" cy="129.2" r="2"/>
				<circle class="st10" cx="275.6" cy="135" r="2"/>
				<circle class="st10" cx="207.8" cy="193.7" r="1.9"/>
				<circle class="st10" cx="350.1" cy="146.8" r="2"/>
				<circle class="st10" cx="379" cy="97.1" r="2"/>
				<circle class="st10" cx="333.5" cy="126.9" r="2"/>
				<circle class="st10" cx="369.7" cy="123.2" r="2"/>
				<circle class="st10" cx="272.3" cy="129.4" r="2"/>
				<circle class="st10" cx="275.6" cy="102.9" r="2"/>
				<circle class="st10" cx="316.3" cy="178.9" r="2"/>
				<circle class="st10" cx="262.1" cy="159.6" r="2"/>
				<circle class="st10" cx="266.1" cy="152.3" r="2"/>
				<circle class="st10" cx="277.8" cy="98" r="2"/>
				<circle class="st10" cx="361.8" cy="130" r="2"/>
				<circle class="st10" cx="364" cy="111.1" r="2"/>
				<circle class="st10" cx="307.3" cy="133.7" r="2"/>
				<circle class="st10" cx="317.7" cy="127.3" r="2"/>
				<circle class="st10" cx="270.8" cy="130.6" r="2"/>
				<circle class="st10" cx="219.8" cy="189.7" r="1.9"/>
				<circle class="st10" cx="179.3" cy="187.4" r="1.9"/>
				<circle class="st14" cx="410.1" cy="85.7" r="2"/>
				<circle class="st10" cx="271.8" cy="159.6" r="2"/>
				<circle class="st10" cx="270.2" cy="166.9" r="2"/>
				<circle class="st10" cx="275.3" cy="136.4" r="2"/>
				<circle class="st11" cx="317.8" cy="152.1" r="2"/>
				<circle class="st10" cx="276.1" cy="107.2" r="2"/>
				<circle class="st10" cx="273.1" cy="196.8" r="2"/>
				<circle class="st10" cx="346" cy="139.4" r="2"/>
				<circle class="st10" cx="297.9" cy="131.8" r="2"/>
				<circle class="st10" cx="341.1" cy="192.3" r="2"/>
				<circle class="st10" cx="304.1" cy="177.6" r="2"/>
				<circle class="st10" cx="258.7" cy="142.8" r="2"/>
				<circle class="st10" cx="302.3" cy="119" r="2"/>
				<circle class="st10" cx="269.1" cy="153.7" r="2"/>
				<circle class="st13" cx="374.5" cy="151.2" r="2"/>
				<circle class="st11" cx="245.4" cy="184.8" r="1.9"/>
				<circle class="st10" cx="378.4" cy="109.5" r="2"/>
				<circle class="st10" cx="378.4" cy="157" r="2"/>
				<circle class="st10" cx="306.5" cy="150.1" r="2"/>
				<circle class="st10" cx="368.4" cy="121.7" r="2"/>
				<ellipse transform="matrix(0.1602 -0.9871 0.9871 0.1602 95.6711 352.5629)" class="st9" cx="255" cy="120.1" rx="1.9" ry="2"/>
				<circle class="st11" cx="379.4" cy="153.8" r="2"/>
				<circle class="st12" cx="355.3" cy="129" r="2"/>
				<circle class="st12" cx="356.8" cy="158" r="2"/>
				<circle class="st10" cx="309.6" cy="137.2" r="2"/>
				<circle class="st10" cx="268.9" cy="164.5" r="2"/>
				<circle class="st10" cx="281.1" cy="183.4" r="2"/>
				<circle class="st10" cx="384.9" cy="113.4" r="2"/>
				<circle class="st10" cx="245.4" cy="120.9" r="1.9"/>
				<circle class="st10" cx="391.1" cy="121.2" r="2"/>
				<circle class="st11" cx="404.7" cy="86.8" r="2"/>
				<circle class="st10" cx="357.5" cy="110.9" r="2"/>
				<circle class="st10" cx="356.2" cy="106.2" r="2"/>
				<circle class="st10" cx="273.6" cy="152.4" r="2"/>
				<circle class="st10" cx="336" cy="130.5" r="2"/>
				<circle class="st10" cx="176.7" cy="162" r="1.9"/>
				<circle class="st10" cx="352.8" cy="79.7" r="2"/>
				<circle class="st10" cx="369" cy="105.8" r="2"/>
				
					<ellipse transform="matrix(0.1602 -0.9871 0.9871 0.1602 77.5547 369.2938)" class="st9" cx="255.8" cy="139.1" rx="1.9" ry="2"/>
				<circle class="st10" cx="217.4" cy="158.5" r="1.9"/>
				<circle class="st10" cx="271.7" cy="124.2" r="2"/>
				<circle class="st10" cx="278.2" cy="151.7" r="2"/>
				<circle class="st10" cx="217.6" cy="142.1" r="1.9"/>
				<circle class="st10" cx="227" cy="145.4" r="1.9"/>
				<circle class="st10" cx="330.3" cy="89.4" r="2"/>
				<circle class="st10" cx="404" cy="95.9" r="2"/>
				<circle class="st12" cx="386" cy="102.8" r="2"/>
				<circle class="st10" cx="374.6" cy="113.6" r="2"/>
				<circle class="st10" cx="301.5" cy="110.2" r="2"/>
				<circle class="st10" cx="262.5" cy="163.4" r="2"/>
				<circle class="st11" cx="349.5" cy="103.3" r="2"/>
				<circle class="st10" cx="365.1" cy="86.2" r="2"/>
				<circle class="st10" cx="331.5" cy="95.3" r="2"/>
				<circle class="st10" cx="349.5" cy="95" r="2"/>
				<circle class="st10" cx="279.1" cy="121.3" r="2"/>
				<circle class="st10" cx="330.1" cy="126.4" r="2"/>
				<circle class="st10" cx="278" cy="163.5" r="2"/>
				<circle class="st10" cx="351.6" cy="115.2" r="2"/>
				<circle class="st11" cx="349.5" cy="108.6" r="2"/>
				<circle class="st10" cx="287.3" cy="120.5" r="2"/>
				<circle class="st10" cx="258.9" cy="160.6" r="2"/>
				<circle class="st10" cx="365.1" cy="108.5" r="2"/>
				<circle class="st10" cx="390.5" cy="110.2" r="2"/>
				<circle class="st10" cx="269.9" cy="132.3" r="2"/>
				<circle class="st10" cx="279.5" cy="145.4" r="2"/>
				<circle class="st10" cx="266.3" cy="136.4" r="2"/>
				<circle class="st10" cx="218.2" cy="154.5" r="1.9"/>
				<circle class="st10" cx="332.9" cy="102.1" r="2"/>
				<circle class="st10" cx="278.3" cy="135.4" r="2"/>
				<circle class="st10" cx="282.4" cy="172.8" r="2"/>
				<circle class="st10" cx="268" cy="141.9" r="2"/>
				<circle class="st10" cx="372" cy="116.7" r="2"/>
				<circle class="st10" cx="313" cy="173.8" r="2"/>
				<circle class="st10" cx="266" cy="143" r="2"/>
				<circle class="st10" cx="361.3" cy="149.3" r="2"/>
				<circle class="st10" cx="297.3" cy="137.7" r="2"/>
				<circle class="st10" cx="321.3" cy="126.8" r="2"/>
				<circle class="st10" cx="269.5" cy="157.9" r="2"/>
				<circle class="st10" cx="275.3" cy="141.5" r="2"/>
				<circle class="st10" cx="320.5" cy="117.5" r="2"/>
				<circle class="st10" cx="349" cy="108.4" r="2"/>
				<circle class="st10" cx="294.7" cy="164" r="2"/>
				<circle class="st10" cx="243.8" cy="138.5" r="1.9"/>
				<circle class="st10" cx="200.6" cy="180" r="1.9"/>
				<circle class="st10" cx="361.9" cy="95.5" r="2"/>
				<circle class="st13" cx="438" cy="133.3" r="2"/>
				<circle class="st11" cx="312.8" cy="154" r="2"/>
				<circle class="st10" cx="295.5" cy="144.1" r="2"/>
				<circle class="st10" cx="349.7" cy="153.5" r="2"/>
				<circle class="st10" cx="367" cy="144.6" r="2"/>
				<circle class="st10" cx="190" cy="209.1" r="1.9"/>
				<circle class="st10" cx="157.8" cy="179.9" r="1.9"/>
				<circle class="st10" cx="349.5" cy="79.9" r="2"/>
				<circle class="st10" cx="328.1" cy="121.8" r="2"/>
				<circle class="st10" cx="317" cy="152.5" r="2"/>
				<circle class="st10" cx="271.2" cy="147.6" r="2"/>
				<circle class="st14" cx="270.2" cy="160.7" r="2"/>
				<circle class="st10" cx="307.5" cy="178.8" r="2"/>
				<circle class="st10" cx="349.5" cy="135.4" r="2"/>
				<circle class="st10" cx="305.1" cy="169.1" r="2"/>
				<circle class="st10" cx="382.4" cy="142.9" r="2"/>
				<circle class="st10" cx="263.3" cy="146.5" r="2"/>
				<circle class="st12" cx="374.1" cy="121.2" r="2"/>
				<circle class="st10" cx="275.5" cy="189.6" r="2"/>
				<circle class="st10" cx="350.3" cy="135.7" r="2"/>
				<circle class="st10" cx="282.9" cy="155.8" r="2"/>
				<circle class="st10" cx="266.9" cy="159.9" r="2"/>
				<circle class="st10" cx="270.7" cy="114" r="2"/>
				<circle class="st10" cx="212" cy="153.8" r="1.9"/>
				<circle class="st12" cx="345.1" cy="138.6" r="2"/>
				<circle class="st10" cx="416.8" cy="115.8" r="2"/>
				<circle class="st10" cx="275.4" cy="116.3" r="2"/>
				<circle class="st10" cx="305.5" cy="123" r="2"/>
				<circle class="st10" cx="400.3" cy="98" r="2"/>
				<circle class="st10" cx="408.9" cy="113.4" r="2"/>
				<circle class="st10" cx="327.8" cy="142.1" r="2"/>
				<circle class="st10" cx="302.9" cy="163.2" r="2"/>
				<circle class="st10" cx="243.2" cy="161.4" r="1.9"/>
				<circle class="st10" cx="283.5" cy="173.6" r="2"/>
				<circle class="st10" cx="396.4" cy="129.2" r="2"/>
				<circle class="st10" cx="330.7" cy="105.7" r="2"/>
				<circle class="st10" cx="270.2" cy="123.9" r="2"/>
				<circle class="st11" cx="301.8" cy="157.6" r="2"/>
				<circle class="st10" cx="319.4" cy="119.4" r="2"/>
				<circle class="st10" cx="326.9" cy="134.6" r="2"/>
				<circle class="st10" cx="332.8" cy="102.7" r="2"/>
				<circle class="st12" cx="462.3" cy="67.5" r="2"/>
				<circle class="st10" cx="192.4" cy="179" r="1.9"/>
				<circle class="st10" cx="276.5" cy="117.8" r="2"/>
				<circle class="st13" cx="272.1" cy="162.4" r="2"/>
				<circle class="st10" cx="285.1" cy="123.1" r="2"/>
				<circle class="st10" cx="223" cy="213.4" r="1.9"/>
				<circle class="st10" cx="297.9" cy="164.9" r="2"/>
				<circle class="st10" cx="276.9" cy="141.4" r="2"/>
				<circle class="st10" cx="272.3" cy="135.1" r="2"/>
				<circle class="st10" cx="267.3" cy="150.6" r="2"/>
				<circle class="st10" cx="370.2" cy="114.8" r="2"/>
				<circle class="st10" cx="373.7" cy="122" r="2"/>
				<circle class="st10" cx="394" cy="133.9" r="2"/>
				<circle class="st10" cx="376.8" cy="125.3" r="2"/>
				<circle class="st10" cx="192.5" cy="156.8" r="1.9"/>
				<circle class="st10" cx="225.7" cy="148" r="1.9"/>
				<circle class="st13" cx="139" cy="284.2" r="2"/>
				<circle class="st10" cx="390.8" cy="155.5" r="2"/>
				<circle class="st10" cx="279.7" cy="133" r="2"/>
				<circle class="st10" cx="374.3" cy="137.1" r="2"/>
				<circle class="st10" cx="176.3" cy="209.9" r="1.9"/>
				<circle class="st10" cx="248.8" cy="146.9" r="1.9"/>
				<circle class="st10" cx="295.1" cy="110.3" r="2"/>
				<circle class="st10" cx="289.9" cy="128.9" r="2"/>
				<circle class="st10" cx="330" cy="108.8" r="2"/>
				<circle class="st10" cx="252.2" cy="129.6" r="1.9"/>
				<circle class="st10" cx="342.8" cy="120.8" r="2"/>
				<circle class="st10" cx="372.4" cy="85.5" r="2"/>
				<circle class="st10" cx="397.6" cy="104.9" r="2"/>
				<circle class="st10" cx="241.1" cy="153.4" r="1.9"/>
				<circle class="st10" cx="371.2" cy="128.3" r="2"/>
				<circle class="st10" cx="284.9" cy="147" r="2"/>
				<circle class="st10" cx="288.9" cy="135.3" r="2"/>
				<circle class="st10" cx="284.3" cy="119.3" r="2"/>
				<circle class="st10" cx="349.5" cy="80.7" r="2"/>
				<circle class="st10" cx="373.8" cy="82.7" r="2"/>
				<circle class="st10" cx="360.8" cy="88.8" r="2"/>
				<circle class="st10" cx="310.4" cy="120.9" r="2"/>
				<circle class="st10" cx="202.7" cy="160.9" r="1.9"/>
				<circle class="st10" cx="309.1" cy="131.5" r="2"/>
				<circle class="st10" cx="279.6" cy="161.2" r="2"/>
				<circle class="st10" cx="373.4" cy="135.6" r="2"/>
				<circle class="st11" cx="342.8" cy="162.9" r="2"/>
				<circle class="st10" cx="402.8" cy="146.9" r="2"/>
				<circle class="st10" cx="308.7" cy="135.8" r="2"/>
				<circle class="st10" cx="271.7" cy="154.5" r="2"/>
				<circle class="st10" cx="299.1" cy="154.6" r="2"/>
				<circle class="st10" cx="219.9" cy="165.9" r="1.9"/>
				<circle class="st10" cx="309.1" cy="138.9" r="2"/>
				<circle class="st10" cx="207.5" cy="147.6" r="1.9"/>
				<circle class="st10" cx="264.1" cy="166.4" r="2"/>
				<circle class="st10" cx="221.9" cy="159" r="1.9"/>
				<circle class="st10" cx="275.2" cy="141.9" r="2"/>
				<circle class="st14" cx="136.5" cy="246.4" r="1.9"/>
				<circle class="st10" cx="295.7" cy="138.3" r="2"/>
				<circle class="st10" cx="320.2" cy="126.9" r="2"/>
				<circle class="st10" cx="178.6" cy="163" r="1.9"/>
				<circle class="st10" cx="240.4" cy="151.9" r="1.9"/>
				<circle class="st10" cx="265" cy="145.1" r="2"/>
				
					<ellipse transform="matrix(0.1602 -0.9871 0.9871 0.1602 72.9351 376.7938)" class="st9" cx="257.9" cy="145.5" rx="1.9" ry="2"/>
				<circle class="st10" cx="150.6" cy="187.6" r="1.9"/>
				<circle class="st10" cx="307.9" cy="136.5" r="2"/>
				<circle class="st10" cx="297.2" cy="114.8" r="2"/>
				<circle class="st10" cx="312.4" cy="163.8" r="2"/>
				<circle class="st14" cx="411.4" cy="116.2" r="2"/>
				<circle class="st12" cx="243.9" cy="129.4" r="1.9"/>
				<circle class="st12" cx="268.2" cy="107.7" r="2"/>
				<circle class="st10" cx="212.8" cy="145.2" r="1.9"/>
				<circle class="st10" cx="213.4" cy="156.5" r="1.9"/>
				<circle class="st10" cx="334.3" cy="104.1" r="2"/>
				<circle class="st10" cx="194.8" cy="158.2" r="1.9"/>
				<circle class="st10" cx="203.9" cy="161.1" r="1.9"/>
				<circle class="st10" cx="287.5" cy="140.3" r="2"/>
				<circle class="st10" cx="142.2" cy="182.6" r="1.9"/>
				<circle class="st10" cx="392.5" cy="81" r="2"/>
				<circle class="st10" cx="236.3" cy="149.8" r="1.9"/>
				<circle class="st10" cx="353.2" cy="128.3" r="2"/>
				<circle class="st10" cx="360.4" cy="146.9" r="2"/>
				<circle class="st10" cx="386.9" cy="97.2" r="2"/>
				<circle class="st10" cx="190.3" cy="152.4" r="1.9"/>
				<circle class="st10" cx="357.8" cy="123.9" r="2"/>
				<circle class="st10" cx="157.1" cy="169.4" r="1.9"/>
				<circle class="st10" cx="292.1" cy="130.4" r="2"/>
				<circle class="st10" cx="279" cy="116.8" r="2"/>
				<circle class="st10" cx="189.8" cy="185" r="1.9"/>
				<circle class="st10" cx="218.9" cy="161.8" r="1.9"/>
				<circle class="st10" cx="339.6" cy="94.6" r="2"/>
				<circle class="st11" cx="402.4" cy="138" r="2"/>
				<circle class="st10" cx="194.2" cy="177.7" r="1.9"/>
				<circle class="st10" cx="345.1" cy="136.1" r="2"/>
				<circle class="st10" cx="370.6" cy="107" r="2"/>
				<circle class="st10" cx="275.1" cy="146.3" r="2"/>
				<circle class="st10" cx="383.3" cy="124" r="2"/>
				
					<ellipse transform="matrix(0.1602 -0.9871 0.9871 0.1602 58.107 387.4915)" class="st9" cx="256.8" cy="159.6" rx="1.9" ry="2"/>
				<circle class="st10" cx="312.8" cy="113.8" r="2"/>
				<circle class="st10" cx="297.2" cy="154.4" r="2"/>
				<circle class="st10" cx="271.9" cy="112.2" r="2"/>
				<circle class="st10" cx="250.9" cy="142.7" r="1.9"/>
				<circle class="st10" cx="270.2" cy="107.1" r="2"/>
				<circle class="st10" cx="247.6" cy="156.2" r="1.9"/>
				<circle class="st10" cx="351.2" cy="120.9" r="2"/>
				<circle class="st12" cx="327.5" cy="205.9" r="2"/>
				<circle class="st14" cx="412.5" cy="96.2" r="2"/>
				<circle class="st10" cx="301" cy="131.7" r="2"/>
				<circle class="st10" cx="278.4" cy="129.3" r="2"/>
				<circle class="st10" cx="407.1" cy="106.9" r="2"/>
				<circle class="st10" cx="342.9" cy="97.8" r="2"/>
				<circle class="st10" cx="350.6" cy="93.1" r="2"/>
				<circle class="st11" cx="401.8" cy="104" r="2"/>
				<circle class="st10" cx="394.2" cy="103.4" r="2"/>
				<circle class="st10" cx="405.3" cy="106.1" r="2"/>
				<circle class="st10" cx="272.1" cy="130.8" r="2"/>
				<circle class="st10" cx="299.7" cy="142.2" r="2"/>
				<circle class="st10" cx="323" cy="99.1" r="2"/>
				<circle class="st10" cx="397" cy="131.4" r="2"/>
				<circle class="st11" cx="343.5" cy="142.1" r="2"/>
				<circle class="st10" cx="356.8" cy="120.2" r="2"/>
				<circle class="st10" cx="276.7" cy="172.5" r="2"/>
				<circle class="st10" cx="238.8" cy="181" r="1.9"/>
				<circle class="st10" cx="377" cy="141.9" r="2"/>
				<circle class="st12" cx="313" cy="122.5" r="2"/>
				<circle class="st10" cx="143.9" cy="207.1" r="1.9"/>
				<circle class="st10" cx="280.1" cy="111.7" r="2"/>
				<circle class="st10" cx="246.9" cy="129.6" r="1.9"/>
				<circle class="st10" cx="349.5" cy="96.5" r="2"/>
				<circle class="st10" cx="339.8" cy="89.7" r="2"/>
				<circle class="st10" cx="319.6" cy="121.7" r="2"/>
				<circle class="st10" cx="274.2" cy="138.4" r="2"/>
				<circle class="st10" cx="215.9" cy="188.7" r="1.9"/>
				<circle class="st10" cx="242.2" cy="132" r="1.9"/>
				<circle class="st10" cx="358" cy="113.8" r="2"/>
				<circle class="st10" cx="356.3" cy="185.8" r="2"/>
				<circle class="st10" cx="288" cy="153.4" r="2"/>
				<circle class="st10" cx="275.7" cy="127.3" r="2"/>
				<circle class="st10" cx="302.6" cy="129.4" r="2"/>
				<circle class="st10" cx="287" cy="128.6" r="2"/>
				<circle class="st10" cx="249.3" cy="144.6" r="1.9"/>
				<circle class="st10" cx="356.3" cy="118.6" r="2"/>
				<circle class="st11" cx="346.9" cy="137.6" r="2"/>
				<circle class="st10" cx="271.8" cy="119.5" r="2"/>
				<circle class="st10" cx="279.4" cy="128.4" r="2"/>
				<circle class="st10" cx="322.9" cy="139.2" r="2"/>
				<circle class="st10" cx="318.6" cy="120.1" r="2"/>
				<circle class="st10" cx="264.9" cy="176.1" r="2"/>
				<circle class="st10" cx="283.8" cy="130.3" r="2"/>
				<circle class="st10" cx="399" cy="104.9" r="2"/>
				<circle class="st10" cx="380.6" cy="123.6" r="2"/>
				<circle class="st10" cx="367.3" cy="80.3" r="2"/>
				<circle class="st10" cx="277.3" cy="166.1" r="2"/>
				<circle class="st10" cx="269.2" cy="147.9" r="2"/>
				<circle class="st10" cx="344.3" cy="108.8" r="2"/>
				<circle class="st10" cx="345.8" cy="81.2" r="2"/>
				<circle class="st10" cx="205.5" cy="129" r="1.9"/>
				<circle class="st10" cx="380.6" cy="134.2" r="2"/>
				<circle class="st10" cx="307.5" cy="174.8" r="2"/>
				<circle class="st10" cx="395.2" cy="151.3" r="2"/>
				<circle class="st11" cx="282.9" cy="160.2" r="2"/>
				<circle class="st10" cx="311.5" cy="162.7" r="2"/>
				<circle class="st10" cx="224.6" cy="196.1" r="1.9"/>
				<circle class="st10" cx="322.9" cy="192.9" r="2"/>
				<circle class="st11" cx="378.3" cy="155.6" r="2"/>
				<circle class="st13" cx="292.9" cy="224.9" r="2"/>
				<circle class="st10" cx="291.2" cy="218.5" r="2"/>
				<circle class="st10" cx="331.8" cy="165.5" r="2"/>
				<circle class="st10" cx="263.9" cy="193" r="2"/>
				<circle class="st10" cx="271.6" cy="190.6" r="2"/>
				<circle class="st10" cx="343.4" cy="194.6" r="2"/>
				<circle class="st10" cx="313.6" cy="202.8" r="2"/>
				<circle class="st10" cx="395.7" cy="158.1" r="2"/>
				<circle class="st10" cx="289" cy="108.5" r="2"/>
				<circle class="st10" cx="283.5" cy="178.6" r="2"/>
				<circle class="st10" cx="232" cy="128.6" r="1.9"/>
				<circle class="st10" cx="395.4" cy="84.3" r="2"/>
				<circle class="st11" cx="373.8" cy="150.3" r="2"/>
				<circle class="st13" cx="375.6" cy="116.9" r="2"/>
				<circle class="st10" cx="361.3" cy="105.7" r="2"/>
				<circle class="st12" cx="309.4" cy="121.7" r="2"/>
				<circle class="st10" cx="343.6" cy="165.2" r="2"/>
				<circle class="st10" cx="331.5" cy="158.3" r="2"/>
				<circle class="st10" cx="369.6" cy="141.8" r="2"/>
				<circle class="st10" cx="389.6" cy="132.7" r="2"/>
				<circle class="st10" cx="329.9" cy="98.4" r="2"/>
				<circle class="st10" cx="236.8" cy="151.3" r="1.9"/>
				<line class="st15" x1="-378.4" y1="299.6" x2="937" y2="-129.3"/>
				<line class="st15" x1="-378.4" y1="340.5" x2="937" y2="-88.4"/>
				<line class="st15" x1="-378.4" y1="381.4" x2="937" y2="-47.5"/>
				<line class="st15" x1="-378.4" y1="422.4" x2="937" y2="-6.5"/>
				<line class="st15" x1="-378.4" y1="463.3" x2="937" y2="34.4"/>
				<line class="st15" x1="-378.4" y1="504.2" x2="937" y2="75.3"/>
			</g>
		</g>
	</g>
</g>
<g>
	<g>
		<g>
			<defs>
				<rect id="SVGID_00000078747134212882747100000002776901903445988280_" y="0" width="504" height="360"/>
			</defs>
			<clipPath id="SVGID_00000146481127892687700940000002781788321862342822_">
				<use xlink:href="#SVGID_00000078747134212882747100000002776901903445988280_"  style="overflow:visible;"/>
			</clipPath>
			<g style="clip-path:url(#SVGID_00000146481127892687700940000002781788321862342822_);">
				<line class="st17" x1="60.1" y1="328.5" x2="60.1" y2="5.5"/>
				<rect x="23.3" y="268.5" class="st18" width="31.8" height="10.4"/>
				<text transform="matrix(1 0 0 1 23.3203 276.0499)" class="st19 st20 st21">0.00001</text>
				<rect x="23.3" y="186.7" class="st18" width="31.8" height="10.4"/>
				<text transform="matrix(1 0 0 1 23.3203 194.2101)" class="st19 st20 st21">0.00100</text>
				<rect x="23.3" y="104.8" class="st18" width="31.8" height="10.4"/>
				<text transform="matrix(1 0 0 1 23.3203 112.36)" class="st19 st20 st21">0.10000</text>
				<rect x="18.4" y="23" class="st18" width="36.7" height="10.4"/>
				<text transform="matrix(1 0 0 1 18.4263 30.5201)" class="st19 st20 st21">10.00000</text>
				<line class="st22" x1="57.3" y1="272.9" x2="60.1" y2="272.9"/>
				<line class="st22" x1="57.3" y1="191.1" x2="60.1" y2="191.1"/>
				<line class="st22" x1="57.3" y1="109.2" x2="60.1" y2="109.2"/>
				<line class="st22" x1="57.3" y1="27.4" x2="60.1" y2="27.4"/>
				<line class="st17" x1="60.1" y1="328.5" x2="498.5" y2="328.5"/>
				<line class="st22" x1="80" y1="331.2" x2="80" y2="328.5"/>
				<line class="st22" x1="205.5" y1="331.2" x2="205.5" y2="328.5"/>
				<line class="st22" x1="331" y1="331.2" x2="331" y2="328.5"/>
				<line class="st22" x1="456.5" y1="331.2" x2="456.5" y2="328.5"/>
				<rect x="71.4" y="332.2" class="st18" width="17.1" height="10.4"/>
				<text transform="matrix(1 0 0 1 71.4365 339.7399)" class="st19 st20 st21">0.01</text>
				<rect x="196.9" y="332.2" class="st18" width="17.1" height="10.4"/>
				<text transform="matrix(1 0 0 1 196.9263 339.7399)" class="st19 st20 st21">0.10</text>
				<rect x="322.4" y="332.2" class="st18" width="17.1" height="10.4"/>
				<text transform="matrix(1 0 0 1 322.4268 339.7399)" class="st19 st20 st21">1.00</text>
				<rect x="445.5" y="332.2" class="st18" width="22" height="10.4"/>
				<text transform="matrix(1 0 0 1 445.4795 339.7399)" class="st19 st20 st21">10.00</text>
				<rect x="234.1" y="342.8" class="st18" width="90.5" height="13"/>
				<text transform="matrix(1 0 0 1 234.0601 352.1998)" class="st20 st23">Checklists per km²</text>
				<rect x="3.9" y="114.4" class="st18" width="13" height="105.1"/>
				<text transform="matrix(6.123234e-17 -1 1 6.123234e-17 13.3574 219.5621)" class="st20 st23">Observations per km²</text>
			</g>
		</g>
	</g>
</g>
<text transform="matrix(0.9488 -0.316 0.316 0.9488 453.8694 41.5972)" class="st20 st24">10-100% </text>
<text transform="matrix(0.9488 -0.316 0.316 0.9488 456.904 50.7056)" class="st20 st24">106 species</text>
<text transform="matrix(0.9488 -0.316 0.316 0.9488 459.9382 59.8141)" class="st20 st24">18.2%</text>
<text transform="matrix(0.9488 -0.316 0.316 0.9488 453.8689 82.6809)" class="st20 st24">1-10% </text>
<text transform="matrix(0.9488 -0.316 0.316 0.9488 456.9027 91.7885)" class="st20 st24">356 species</text>
<text transform="matrix(0.9488 -0.316 0.316 0.9488 459.9361 100.8962)" class="st20 st24">61.3%</text>
<text transform="matrix(0.9488 -0.316 0.316 0.9488 453.8695 123.8929)" class="st20 st24">0.1-1% </text>
<text transform="matrix(0.9488 -0.316 0.316 0.9488 456.9033 133.0005)" class="st20 st24">108 species</text>
<text transform="matrix(0.9488 -0.316 0.316 0.9488 459.9374 142.109)" class="st20 st24">18.6%</text>
<text transform="matrix(0.9488 -0.316 0.316 0.9488 453.8696 165.0062)" class="st20 st24">0.01-0.1% </text>
<text transform="matrix(0.9488 -0.316 0.316 0.9488 456.9038 174.1136)" class="st20 st24">10 species</text>
<text transform="matrix(0.9488 -0.316 0.316 0.9488 459.9372 183.2214)" class="st20 st24">1.7%</text>
<text transform="matrix(0.9488 -0.316 0.316 0.9488 453.8692 205.4568)" class="st20 st24">0.001-0.01% </text>
<text transform="matrix(0.9488 -0.316 0.316 0.9488 456.9034 214.5653)" class="st20 st24">1 species</text>
<text transform="matrix(0.9488 -0.316 0.316 0.9488 459.9375 223.6738)" class="st20 st24">0.2%</text>
<rect x="86.3" y="31.5" class="st25" width="113" height="73.6"/>
<circle class="st14" cx="97.7" cy="55.6" r="5"/>
<circle class="st10" cx="97.7" cy="42.9" r="5"/>
<circle class="st11" cx="97.7" cy="68.3" r="5"/>
<circle class="st13" cx="97.7" cy="93.7" r="5"/>
<circle class="st12" cx="97.7" cy="81" r="5"/>
<g>
	<path d="M109.7,44.8v-5h0.7v4.4h2.5v0.6H109.7z"/>
	<path d="M116,43.6l0.6,0.1c-0.1,0.4-0.3,0.7-0.6,0.9s-0.6,0.3-1,0.3c-0.5,0-1-0.2-1.3-0.5c-0.3-0.3-0.5-0.8-0.5-1.4
		c0-0.6,0.2-1.1,0.5-1.4s0.7-0.5,1.2-0.5c0.5,0,0.9,0.2,1.2,0.5s0.5,0.8,0.5,1.4c0,0,0,0.1,0,0.2H114c0,0.4,0.1,0.7,0.3,0.9
		s0.5,0.3,0.8,0.3c0.2,0,0.4-0.1,0.6-0.2S115.9,43.8,116,43.6z M114,42.6h2c0-0.3-0.1-0.5-0.2-0.7c-0.2-0.2-0.5-0.4-0.8-0.4
		c-0.3,0-0.5,0.1-0.7,0.3C114.1,42,114,42.3,114,42.6z"/>
	<path d="M119.8,44.3c-0.2,0.2-0.4,0.3-0.7,0.4c-0.2,0.1-0.4,0.1-0.7,0.1c-0.4,0-0.7-0.1-0.9-0.3c-0.2-0.2-0.3-0.4-0.3-0.7
		c0-0.2,0-0.3,0.1-0.5c0.1-0.1,0.2-0.3,0.3-0.4c0.1-0.1,0.3-0.2,0.4-0.2c0.1,0,0.3-0.1,0.5-0.1c0.5-0.1,0.9-0.1,1.1-0.2
		c0-0.1,0-0.1,0-0.2c0-0.3-0.1-0.4-0.2-0.5c-0.2-0.1-0.4-0.2-0.7-0.2c-0.3,0-0.5,0.1-0.6,0.2c-0.1,0.1-0.2,0.3-0.3,0.5l-0.6-0.1
		c0.1-0.3,0.1-0.5,0.3-0.6c0.1-0.2,0.3-0.3,0.5-0.4c0.2-0.1,0.5-0.1,0.8-0.1c0.3,0,0.6,0,0.8,0.1s0.3,0.2,0.4,0.3
		c0.1,0.1,0.2,0.2,0.2,0.4c0,0.1,0,0.3,0,0.6v0.8c0,0.6,0,0.9,0,1.1c0,0.2,0.1,0.3,0.2,0.4h-0.6C119.9,44.6,119.8,44.5,119.8,44.3z
		 M119.7,42.9c-0.2,0.1-0.6,0.2-1,0.2c-0.3,0-0.4,0.1-0.5,0.1s-0.2,0.1-0.2,0.2c-0.1,0.1-0.1,0.2-0.1,0.3c0,0.2,0.1,0.3,0.2,0.4
		c0.1,0.1,0.3,0.2,0.5,0.2c0.2,0,0.4-0.1,0.6-0.2c0.2-0.1,0.3-0.2,0.4-0.4c0.1-0.1,0.1-0.3,0.1-0.6V42.9z"/>
	<path d="M121.1,43.7l0.6-0.1c0,0.2,0.1,0.4,0.3,0.6c0.2,0.1,0.4,0.2,0.7,0.2c0.3,0,0.5-0.1,0.6-0.2c0.1-0.1,0.2-0.2,0.2-0.4
		c0-0.1-0.1-0.2-0.2-0.3c-0.1-0.1-0.3-0.1-0.6-0.2c-0.5-0.1-0.8-0.2-0.9-0.3c-0.2-0.1-0.3-0.2-0.4-0.3c-0.1-0.1-0.1-0.3-0.1-0.5
		c0-0.2,0-0.3,0.1-0.4c0.1-0.1,0.2-0.3,0.3-0.3c0.1-0.1,0.2-0.1,0.4-0.2c0.2,0,0.3-0.1,0.5-0.1c0.3,0,0.5,0,0.8,0.1
		c0.2,0.1,0.4,0.2,0.5,0.3c0.1,0.1,0.2,0.3,0.2,0.6l-0.6,0.1c0-0.2-0.1-0.3-0.2-0.4c-0.1-0.1-0.3-0.2-0.6-0.2c-0.3,0-0.5,0-0.6,0.1
		s-0.2,0.2-0.2,0.3c0,0.1,0,0.2,0.1,0.2c0.1,0.1,0.1,0.1,0.2,0.2c0.1,0,0.2,0.1,0.5,0.2c0.4,0.1,0.7,0.2,0.9,0.3
		c0.2,0.1,0.3,0.2,0.4,0.3s0.1,0.3,0.1,0.5c0,0.2-0.1,0.4-0.2,0.6c-0.1,0.2-0.3,0.3-0.5,0.4c-0.2,0.1-0.5,0.1-0.8,0.1
		c-0.5,0-0.8-0.1-1.1-0.3C121.3,44.3,121.1,44.1,121.1,43.7z"/>
	<path d="M126.2,44.2l0.1,0.5c-0.2,0-0.3,0.1-0.5,0.1c-0.2,0-0.4,0-0.5-0.1s-0.2-0.2-0.3-0.3c-0.1-0.1-0.1-0.4-0.1-0.7v-2.1h-0.5
		v-0.5h0.5v-0.9l0.6-0.4v1.3h0.6v0.5h-0.6v2.1c0,0.2,0,0.3,0,0.3c0,0.1,0.1,0.1,0.1,0.1c0,0,0.1,0,0.2,0
		C126,44.2,126.1,44.2,126.2,44.2z"/>
	<path d="M132.4,43l0.7,0.2c-0.1,0.5-0.4,1-0.8,1.2c-0.4,0.3-0.8,0.4-1.3,0.4c-0.5,0-1-0.1-1.3-0.3c-0.3-0.2-0.6-0.5-0.8-1
		c-0.2-0.4-0.3-0.9-0.3-1.3c0-0.5,0.1-1,0.3-1.4c0.2-0.4,0.5-0.7,0.9-0.9c0.4-0.2,0.8-0.3,1.2-0.3c0.5,0,0.9,0.1,1.3,0.4
		s0.6,0.6,0.7,1.1l-0.7,0.2c-0.1-0.4-0.3-0.6-0.5-0.8s-0.5-0.2-0.8-0.2c-0.4,0-0.7,0.1-1,0.3c-0.3,0.2-0.4,0.4-0.5,0.7
		c-0.1,0.3-0.2,0.6-0.2,1c0,0.4,0.1,0.8,0.2,1.1c0.1,0.3,0.3,0.6,0.6,0.7s0.5,0.2,0.9,0.2c0.4,0,0.7-0.1,0.9-0.3
		S132.3,43.4,132.4,43z"/>
	<path d="M133.5,42.9c0-0.7,0.2-1.2,0.6-1.5c0.3-0.3,0.7-0.4,1.1-0.4c0.5,0,0.9,0.2,1.2,0.5c0.3,0.3,0.5,0.8,0.5,1.4
		c0,0.5-0.1,0.8-0.2,1.1c-0.1,0.3-0.3,0.5-0.6,0.6s-0.6,0.2-0.9,0.2c-0.5,0-0.9-0.2-1.2-0.5S133.5,43.6,133.5,42.9z M134.2,42.9
		c0,0.5,0.1,0.8,0.3,1c0.2,0.2,0.5,0.3,0.8,0.3c0.3,0,0.6-0.1,0.8-0.3c0.2-0.2,0.3-0.6,0.3-1.1c0-0.4-0.1-0.8-0.3-1
		c-0.2-0.2-0.5-0.3-0.8-0.3c-0.3,0-0.6,0.1-0.8,0.3C134.3,42.1,134.2,42.5,134.2,42.9z"/>
	<path d="M137.7,44.8v-3.6h0.6v0.5c0.3-0.4,0.7-0.6,1.2-0.6c0.2,0,0.4,0,0.6,0.1c0.2,0.1,0.3,0.2,0.4,0.3s0.2,0.3,0.2,0.5
		c0,0.1,0,0.3,0,0.6v2.2H140v-2.2c0-0.3,0-0.4-0.1-0.6c0-0.1-0.1-0.2-0.3-0.3c-0.1-0.1-0.3-0.1-0.4-0.1c-0.3,0-0.5,0.1-0.7,0.2
		s-0.3,0.5-0.3,0.9v2H137.7z"/>
	<path d="M143.9,43.4l0.6,0.1c-0.1,0.4-0.2,0.7-0.5,1c-0.3,0.2-0.6,0.4-1,0.4c-0.5,0-0.9-0.2-1.2-0.5c-0.3-0.3-0.5-0.8-0.5-1.4
		c0-0.4,0.1-0.7,0.2-1c0.1-0.3,0.3-0.5,0.6-0.7c0.3-0.1,0.6-0.2,0.9-0.2c0.4,0,0.7,0.1,1,0.3c0.3,0.2,0.4,0.5,0.5,0.8l-0.6,0.1
		c-0.1-0.2-0.2-0.4-0.3-0.6s-0.3-0.2-0.5-0.2c-0.3,0-0.6,0.1-0.8,0.3c-0.2,0.2-0.3,0.6-0.3,1.1c0,0.5,0.1,0.8,0.3,1.1
		c0.2,0.2,0.4,0.3,0.7,0.3c0.2,0,0.4-0.1,0.6-0.2S143.9,43.7,143.9,43.4z"/>
	<path d="M147.5,43.6l0.6,0.1c-0.1,0.4-0.3,0.7-0.6,0.9c-0.3,0.2-0.6,0.3-1,0.3c-0.5,0-1-0.2-1.3-0.5c-0.3-0.3-0.5-0.8-0.5-1.4
		c0-0.6,0.2-1.1,0.5-1.4s0.7-0.5,1.2-0.5c0.5,0,0.9,0.2,1.2,0.5c0.3,0.3,0.5,0.8,0.5,1.4c0,0,0,0.1,0,0.2h-2.7
		c0,0.4,0.1,0.7,0.3,0.9s0.5,0.3,0.8,0.3c0.2,0,0.4-0.1,0.6-0.2C147.3,44,147.4,43.8,147.5,43.6z M145.5,42.6h2
		c0-0.3-0.1-0.5-0.2-0.7c-0.2-0.2-0.5-0.4-0.8-0.4c-0.3,0-0.5,0.1-0.7,0.3S145.5,42.3,145.5,42.6z"/>
	<path d="M148.9,44.8v-3.6h0.6v0.6c0.1-0.3,0.3-0.4,0.4-0.5c0.1-0.1,0.3-0.1,0.4-0.1c0.2,0,0.4,0.1,0.6,0.2l-0.2,0.6
		c-0.2-0.1-0.3-0.1-0.5-0.1c-0.1,0-0.3,0-0.4,0.1c-0.1,0.1-0.2,0.2-0.2,0.3c-0.1,0.2-0.1,0.5-0.1,0.7v1.9H148.9z"/>
	<path d="M151.3,44.8v-3.6h0.6v0.5c0.3-0.4,0.7-0.6,1.2-0.6c0.2,0,0.4,0,0.6,0.1c0.2,0.1,0.3,0.2,0.4,0.3s0.2,0.3,0.2,0.5
		c0,0.1,0,0.3,0,0.6v2.2h-0.6v-2.2c0-0.3,0-0.4-0.1-0.6c0-0.1-0.1-0.2-0.3-0.3c-0.1-0.1-0.3-0.1-0.4-0.1c-0.3,0-0.5,0.1-0.7,0.2
		s-0.3,0.5-0.3,0.9v2H151.3z"/>
	<path d="M158.3,46.2c-0.3-0.4-0.6-0.9-0.9-1.5c-0.2-0.6-0.4-1.2-0.4-1.8c0-0.5,0.1-1.1,0.3-1.6c0.2-0.6,0.5-1.2,0.9-1.7h0.4
		c-0.3,0.5-0.5,0.8-0.5,1c-0.1,0.3-0.2,0.6-0.3,1c-0.1,0.4-0.1,0.9-0.1,1.3c0,1.1,0.3,2.2,1,3.3H158.3z"/>
	<path d="M159.5,44.8v-5h0.7v4.4h2.5v0.6H159.5z"/>
	<path d="M167,43l0.7,0.2c-0.1,0.5-0.4,1-0.8,1.2c-0.4,0.3-0.8,0.4-1.3,0.4c-0.5,0-1-0.1-1.3-0.3c-0.3-0.2-0.6-0.5-0.8-1
		s-0.3-0.9-0.3-1.3c0-0.5,0.1-1,0.3-1.4c0.2-0.4,0.5-0.7,0.9-0.9c0.4-0.2,0.8-0.3,1.2-0.3c0.5,0,0.9,0.1,1.3,0.4s0.6,0.6,0.7,1.1
		l-0.7,0.2c-0.1-0.4-0.3-0.6-0.5-0.8s-0.5-0.2-0.8-0.2c-0.4,0-0.7,0.1-1,0.3s-0.4,0.4-0.5,0.7c-0.1,0.3-0.2,0.6-0.2,1
		c0,0.4,0.1,0.8,0.2,1.1c0.1,0.3,0.3,0.6,0.6,0.7s0.5,0.2,0.9,0.2c0.4,0,0.7-0.1,0.9-0.3C166.7,43.7,166.9,43.4,167,43z"/>
	<path d="M168.8,46.2h-0.4c0.7-1.1,1-2.2,1-3.3c0-0.4,0-0.9-0.1-1.3c-0.1-0.3-0.2-0.7-0.3-1c-0.1-0.2-0.3-0.5-0.6-1h0.4
		c0.4,0.6,0.7,1.1,0.9,1.7c0.2,0.5,0.3,1,0.3,1.6c0,0.6-0.1,1.2-0.4,1.8C169.4,45.3,169.1,45.8,168.8,46.2z"/>
</g>
<g>
	<path d="M109.7,57.4v-5h0.7l2.6,3.9v-3.9h0.6v5H113l-2.6-3.9v3.9H109.7z"/>
	<path d="M117.2,56.3l0.6,0.1c-0.1,0.4-0.3,0.7-0.6,0.9s-0.6,0.3-1,0.3c-0.5,0-1-0.2-1.3-0.5c-0.3-0.3-0.5-0.8-0.5-1.4
		c0-0.6,0.2-1.1,0.5-1.4s0.7-0.5,1.2-0.5c0.5,0,0.9,0.2,1.2,0.5s0.5,0.8,0.5,1.4c0,0,0,0.1,0,0.2h-2.7c0,0.4,0.1,0.7,0.3,0.9
		s0.5,0.3,0.8,0.3c0.2,0,0.4-0.1,0.6-0.2S117.1,56.5,117.2,56.3z M115.2,55.3h2c0-0.3-0.1-0.5-0.2-0.7c-0.2-0.2-0.5-0.4-0.8-0.4
		c-0.3,0-0.5,0.1-0.7,0.3C115.3,54.7,115.2,55,115.2,55.3z"/>
	<path d="M121,57c-0.2,0.2-0.4,0.3-0.7,0.4c-0.2,0.1-0.4,0.1-0.7,0.1c-0.4,0-0.7-0.1-0.9-0.3c-0.2-0.2-0.3-0.4-0.3-0.7
		c0-0.2,0-0.3,0.1-0.5c0.1-0.1,0.2-0.3,0.3-0.4c0.1-0.1,0.3-0.2,0.4-0.2c0.1,0,0.3-0.1,0.5-0.1c0.5-0.1,0.9-0.1,1.1-0.2
		c0-0.1,0-0.1,0-0.2c0-0.3-0.1-0.4-0.2-0.5c-0.2-0.1-0.4-0.2-0.7-0.2c-0.3,0-0.5,0.1-0.6,0.2c-0.1,0.1-0.2,0.3-0.3,0.5l-0.6-0.1
		c0.1-0.3,0.1-0.5,0.3-0.6c0.1-0.2,0.3-0.3,0.5-0.4c0.2-0.1,0.5-0.1,0.8-0.1c0.3,0,0.6,0,0.8,0.1s0.3,0.2,0.4,0.3
		c0.1,0.1,0.2,0.2,0.2,0.4c0,0.1,0,0.3,0,0.6v0.8c0,0.6,0,0.9,0,1.1c0,0.2,0.1,0.3,0.2,0.4h-0.6C121,57.3,121,57.2,121,57z
		 M120.9,55.6c-0.2,0.1-0.6,0.2-1,0.2c-0.3,0-0.4,0.1-0.5,0.1s-0.2,0.1-0.2,0.2c-0.1,0.1-0.1,0.2-0.1,0.3c0,0.2,0.1,0.3,0.2,0.4
		c0.1,0.1,0.3,0.2,0.5,0.2c0.2,0,0.4-0.1,0.6-0.2c0.2-0.1,0.3-0.2,0.4-0.4c0.1-0.1,0.1-0.3,0.1-0.6V55.6z"/>
	<path d="M122.5,57.4v-3.6h0.6v0.6c0.1-0.3,0.3-0.4,0.4-0.5c0.1-0.1,0.3-0.1,0.4-0.1c0.2,0,0.4,0.1,0.6,0.2l-0.2,0.6
		c-0.2-0.1-0.3-0.1-0.5-0.1c-0.1,0-0.3,0-0.4,0.1c-0.1,0.1-0.2,0.2-0.2,0.3c-0.1,0.2-0.1,0.5-0.1,0.7v1.9H122.5z"/>
	<path d="M128,57.4V53h-1.7v-0.6h4V53h-1.7v4.4H128z"/>
	<path d="M130.9,57.4v-5h0.6v1.8c0.3-0.3,0.6-0.5,1.1-0.5c0.3,0,0.5,0.1,0.7,0.2c0.2,0.1,0.3,0.3,0.4,0.4c0.1,0.2,0.1,0.5,0.1,0.8
		v2.3h-0.6v-2.3c0-0.3-0.1-0.5-0.2-0.7c-0.1-0.1-0.3-0.2-0.6-0.2c-0.2,0-0.4,0-0.5,0.1c-0.2,0.1-0.3,0.2-0.3,0.4s-0.1,0.4-0.1,0.7v2
		H130.9z"/>
	<path d="M134.8,57.4v-3.6h0.6v0.6c0.1-0.3,0.3-0.4,0.4-0.5c0.1-0.1,0.3-0.1,0.4-0.1c0.2,0,0.4,0.1,0.6,0.2l-0.2,0.6
		c-0.2-0.1-0.3-0.1-0.5-0.1c-0.1,0-0.3,0-0.4,0.1c-0.1,0.1-0.2,0.2-0.2,0.3c-0.1,0.2-0.1,0.5-0.1,0.7v1.9H134.8z"/>
	<path d="M139.6,56.3l0.6,0.1c-0.1,0.4-0.3,0.7-0.6,0.9s-0.6,0.3-1,0.3c-0.5,0-1-0.2-1.3-0.5c-0.3-0.3-0.5-0.8-0.5-1.4
		c0-0.6,0.2-1.1,0.5-1.4s0.7-0.5,1.2-0.5c0.5,0,0.9,0.2,1.2,0.5s0.5,0.8,0.5,1.4c0,0,0,0.1,0,0.2h-2.7c0,0.4,0.1,0.7,0.3,0.9
		s0.5,0.3,0.8,0.3c0.2,0,0.4-0.1,0.6-0.2S139.5,56.5,139.6,56.3z M137.6,55.3h2c0-0.3-0.1-0.5-0.2-0.7c-0.2-0.2-0.5-0.4-0.8-0.4
		c-0.3,0-0.5,0.1-0.7,0.3C137.7,54.7,137.6,55,137.6,55.3z"/>
	<path d="M143.4,57c-0.2,0.2-0.4,0.3-0.7,0.4c-0.2,0.1-0.4,0.1-0.7,0.1c-0.4,0-0.7-0.1-0.9-0.3c-0.2-0.2-0.3-0.4-0.3-0.7
		c0-0.2,0-0.3,0.1-0.5c0.1-0.1,0.2-0.3,0.3-0.4c0.1-0.1,0.3-0.2,0.4-0.2c0.1,0,0.3-0.1,0.5-0.1c0.5-0.1,0.9-0.1,1.1-0.2
		c0-0.1,0-0.1,0-0.2c0-0.3-0.1-0.4-0.2-0.5c-0.2-0.1-0.4-0.2-0.7-0.2c-0.3,0-0.5,0.1-0.6,0.2c-0.1,0.1-0.2,0.3-0.3,0.5l-0.6-0.1
		c0.1-0.3,0.1-0.5,0.3-0.6c0.1-0.2,0.3-0.3,0.5-0.4c0.2-0.1,0.5-0.1,0.8-0.1c0.3,0,0.6,0,0.8,0.1s0.3,0.2,0.4,0.3
		c0.1,0.1,0.2,0.2,0.2,0.4c0,0.1,0,0.3,0,0.6v0.8c0,0.6,0,0.9,0,1.1c0,0.2,0.1,0.3,0.2,0.4h-0.6C143.5,57.3,143.4,57.2,143.4,57z
		 M143.3,55.6c-0.2,0.1-0.6,0.2-1,0.2c-0.3,0-0.4,0.1-0.5,0.1s-0.2,0.1-0.2,0.2c-0.1,0.1-0.1,0.2-0.1,0.3c0,0.2,0.1,0.3,0.2,0.4
		c0.1,0.1,0.3,0.2,0.5,0.2c0.2,0,0.4-0.1,0.6-0.2c0.2-0.1,0.3-0.2,0.4-0.4c0.1-0.1,0.1-0.3,0.1-0.6V55.6z"/>
	<path d="M146.3,56.9l0.1,0.5c-0.2,0-0.3,0.1-0.5,0.1c-0.2,0-0.4,0-0.5-0.1s-0.2-0.2-0.3-0.3c-0.1-0.1-0.1-0.4-0.1-0.7v-2.1h-0.5
		v-0.5h0.5v-0.9l0.6-0.4v1.3h0.6v0.5h-0.6v2.1c0,0.2,0,0.3,0,0.3c0,0.1,0.1,0.1,0.1,0.1c0,0,0.1,0,0.2,0
		C146.1,56.9,146.1,56.9,146.3,56.9z"/>
	<path d="M149.3,56.3l0.6,0.1c-0.1,0.4-0.3,0.7-0.6,0.9s-0.6,0.3-1,0.3c-0.5,0-1-0.2-1.3-0.5c-0.3-0.3-0.5-0.8-0.5-1.4
		c0-0.6,0.2-1.1,0.5-1.4s0.7-0.5,1.2-0.5c0.5,0,0.9,0.2,1.2,0.5s0.5,0.8,0.5,1.4c0,0,0,0.1,0,0.2h-2.7c0,0.4,0.1,0.7,0.3,0.9
		s0.5,0.3,0.8,0.3c0.2,0,0.4-0.1,0.6-0.2S149.3,56.5,149.3,56.3z M147.3,55.3h2c0-0.3-0.1-0.5-0.2-0.7c-0.2-0.2-0.5-0.4-0.8-0.4
		c-0.3,0-0.5,0.1-0.7,0.3C147.5,54.7,147.3,55,147.3,55.3z"/>
	<path d="M150.8,57.4v-3.6h0.6v0.5c0.3-0.4,0.7-0.6,1.2-0.6c0.2,0,0.4,0,0.6,0.1c0.2,0.1,0.3,0.2,0.4,0.3s0.2,0.3,0.2,0.5
		c0,0.1,0,0.3,0,0.6v2.2h-0.6v-2.2c0-0.3,0-0.4-0.1-0.6c0-0.1-0.1-0.2-0.3-0.3c-0.1-0.1-0.3-0.1-0.4-0.1c-0.3,0-0.5,0.1-0.7,0.2
		c-0.2,0.2-0.3,0.5-0.3,0.9v2H150.8z"/>
	<path d="M157.1,56.3l0.6,0.1c-0.1,0.4-0.3,0.7-0.6,0.9s-0.6,0.3-1,0.3c-0.5,0-1-0.2-1.3-0.5c-0.3-0.3-0.5-0.8-0.5-1.4
		c0-0.6,0.2-1.1,0.5-1.4s0.7-0.5,1.2-0.5c0.5,0,0.9,0.2,1.2,0.5s0.5,0.8,0.5,1.4c0,0,0,0.1,0,0.2h-2.7c0,0.4,0.1,0.7,0.3,0.9
		s0.5,0.3,0.8,0.3c0.2,0,0.4-0.1,0.6-0.2S157,56.5,157.1,56.3z M155.1,55.3h2c0-0.3-0.1-0.5-0.2-0.7c-0.2-0.2-0.5-0.4-0.8-0.4
		c-0.3,0-0.5,0.1-0.7,0.3C155.2,54.7,155.1,55,155.1,55.3z"/>
	<path d="M160.9,57.4V57c-0.2,0.4-0.6,0.5-1,0.5c-0.3,0-0.6-0.1-0.8-0.2c-0.2-0.2-0.4-0.4-0.6-0.7c-0.1-0.3-0.2-0.6-0.2-1
		c0-0.4,0.1-0.7,0.2-1c0.1-0.3,0.3-0.5,0.5-0.7s0.5-0.2,0.8-0.2c0.2,0,0.4,0,0.6,0.1c0.2,0.1,0.3,0.2,0.4,0.4v-1.8h0.6v5H160.9z
		 M159,55.6c0,0.5,0.1,0.8,0.3,1s0.4,0.3,0.7,0.3c0.3,0,0.5-0.1,0.7-0.3c0.2-0.2,0.3-0.6,0.3-1c0-0.5-0.1-0.9-0.3-1.1
		s-0.4-0.3-0.7-0.3c-0.3,0-0.5,0.1-0.7,0.3C159,54.8,159,55.1,159,55.6z"/>
	<path d="M165.6,58.9c-0.3-0.4-0.6-0.9-0.9-1.5s-0.4-1.2-0.4-1.8c0-0.5,0.1-1.1,0.3-1.6c0.2-0.6,0.5-1.2,1-1.7h0.4
		c-0.3,0.5-0.5,0.8-0.5,1c-0.1,0.3-0.2,0.6-0.3,1c-0.1,0.4-0.1,0.9-0.1,1.3c0,1.1,0.3,2.2,1,3.3H165.6z"/>
	<path d="M166.8,57.4v-5h0.7l2.6,3.9v-3.9h0.6v5H170l-2.6-3.9v3.9H166.8z"/>
	<path d="M173.1,57.4V53h-1.7v-0.6h4V53h-1.7v4.4H173.1z"/>
	<path d="M176.4,58.9H176c0.7-1.1,1-2.2,1-3.3c0-0.4,0-0.9-0.1-1.3c-0.1-0.3-0.2-0.7-0.3-1c-0.1-0.2-0.3-0.5-0.6-1h0.4
		c0.4,0.6,0.7,1.1,1,1.7c0.2,0.5,0.3,1,0.3,1.6c0,0.6-0.1,1.2-0.4,1.8C177.1,58,176.8,58.5,176.4,58.9z"/>
</g>
<g>
	<path d="M111.2,70.1l-1.9-5h0.7l1.3,3.6c0.1,0.3,0.2,0.6,0.3,0.8c0.1-0.3,0.2-0.5,0.3-0.8l1.4-3.6h0.7l-2,5H111.2z"/>
	<path d="M116.4,70.1v-0.5c-0.3,0.4-0.7,0.6-1.2,0.6c-0.2,0-0.4,0-0.6-0.1c-0.2-0.1-0.3-0.2-0.4-0.3c-0.1-0.1-0.2-0.3-0.2-0.5
		c0-0.1,0-0.3,0-0.6v-2.2h0.6v2c0,0.3,0,0.5,0,0.6c0,0.2,0.1,0.3,0.2,0.4c0.1,0.1,0.3,0.1,0.5,0.1s0.4,0,0.5-0.1
		c0.2-0.1,0.3-0.2,0.3-0.4c0.1-0.2,0.1-0.4,0.1-0.7v-1.9h0.6v3.6H116.4z"/>
	<path d="M117.9,70.1v-5h0.6v5H117.9z"/>
	<path d="M119.5,70.1v-3.6h0.6V67c0.3-0.4,0.7-0.6,1.2-0.6c0.2,0,0.4,0,0.6,0.1c0.2,0.1,0.3,0.2,0.4,0.3s0.2,0.3,0.2,0.5
		c0,0.1,0,0.3,0,0.6v2.2h-0.6v-2.2c0-0.3,0-0.4-0.1-0.6c0-0.1-0.1-0.2-0.3-0.3c-0.1-0.1-0.3-0.1-0.4-0.1c-0.3,0-0.5,0.1-0.7,0.2
		c-0.2,0.2-0.3,0.5-0.3,0.9v2H119.5z"/>
	<path d="M125.9,68.9l0.6,0.1c-0.1,0.4-0.3,0.7-0.6,0.9s-0.6,0.3-1,0.3c-0.5,0-1-0.2-1.3-0.5c-0.3-0.3-0.5-0.8-0.5-1.4
		c0-0.6,0.2-1.1,0.5-1.4s0.7-0.5,1.2-0.5c0.5,0,0.9,0.2,1.2,0.5s0.5,0.8,0.5,1.4c0,0,0,0.1,0,0.2h-2.7c0,0.4,0.1,0.7,0.3,0.9
		s0.5,0.3,0.8,0.3c0.2,0,0.4-0.1,0.6-0.2S125.8,69.2,125.9,68.9z M123.9,67.9h2c0-0.3-0.1-0.5-0.2-0.7c-0.2-0.2-0.5-0.4-0.8-0.4
		c-0.3,0-0.5,0.1-0.7,0.3C124,67.4,123.9,67.6,123.9,67.9z"/>
	<path d="M127.3,70.1v-3.6h0.6V67c0.1-0.3,0.3-0.4,0.4-0.5c0.1-0.1,0.3-0.1,0.4-0.1c0.2,0,0.4,0.1,0.6,0.2l-0.2,0.6
		c-0.2-0.1-0.3-0.1-0.5-0.1c-0.1,0-0.3,0-0.4,0.1c-0.1,0.1-0.2,0.2-0.2,0.3c-0.1,0.2-0.1,0.5-0.1,0.7v1.9H127.3z"/>
	<path d="M132,69.7c-0.2,0.2-0.4,0.3-0.7,0.4c-0.2,0.1-0.4,0.1-0.7,0.1c-0.4,0-0.7-0.1-0.9-0.3c-0.2-0.2-0.3-0.4-0.3-0.7
		c0-0.2,0-0.3,0.1-0.5c0.1-0.1,0.2-0.3,0.3-0.4c0.1-0.1,0.3-0.2,0.4-0.2c0.1,0,0.3-0.1,0.5-0.1c0.5-0.1,0.9-0.1,1.1-0.2
		c0-0.1,0-0.1,0-0.2c0-0.3-0.1-0.4-0.2-0.5c-0.2-0.1-0.4-0.2-0.7-0.2c-0.3,0-0.5,0.1-0.6,0.2c-0.1,0.1-0.2,0.3-0.3,0.5l-0.6-0.1
		c0.1-0.3,0.1-0.5,0.3-0.6c0.1-0.2,0.3-0.3,0.5-0.4c0.2-0.1,0.5-0.1,0.8-0.1c0.3,0,0.6,0,0.8,0.1s0.3,0.2,0.4,0.3
		c0.1,0.1,0.2,0.2,0.2,0.4c0,0.1,0,0.3,0,0.6v0.8c0,0.6,0,0.9,0,1.1c0,0.2,0.1,0.3,0.2,0.4h-0.6C132,70,132,69.8,132,69.7z
		 M131.9,68.3c-0.2,0.1-0.6,0.2-1,0.2c-0.3,0-0.4,0.1-0.5,0.1s-0.2,0.1-0.2,0.2c-0.1,0.1-0.1,0.2-0.1,0.3c0,0.2,0.1,0.3,0.2,0.4
		c0.1,0.1,0.3,0.2,0.5,0.2c0.2,0,0.4-0.1,0.6-0.2c0.2-0.1,0.3-0.2,0.4-0.4c0.1-0.1,0.1-0.3,0.1-0.6V68.3z"/>
	<path d="M134.1,70.1h-0.6v-5h0.6v1.8c0.3-0.3,0.6-0.5,1-0.5c0.2,0,0.4,0,0.6,0.1c0.2,0.1,0.4,0.2,0.5,0.4c0.1,0.2,0.2,0.4,0.3,0.6
		s0.1,0.5,0.1,0.7c0,0.6-0.2,1.1-0.5,1.4s-0.7,0.5-1.1,0.5c-0.4,0-0.8-0.2-1-0.5V70.1z M134.1,68.3c0,0.4,0.1,0.7,0.2,0.9
		c0.2,0.3,0.5,0.5,0.8,0.5c0.3,0,0.5-0.1,0.7-0.4c0.2-0.2,0.3-0.6,0.3-1c0-0.5-0.1-0.8-0.3-1c-0.2-0.2-0.4-0.3-0.7-0.3
		c-0.3,0-0.5,0.1-0.7,0.4C134.2,67.5,134.1,67.8,134.1,68.3z"/>
	<path d="M137.4,70.1v-5h0.6v5H137.4z"/>
	<path d="M141.4,68.9l0.6,0.1c-0.1,0.4-0.3,0.7-0.6,0.9s-0.6,0.3-1,0.3c-0.5,0-1-0.2-1.3-0.5c-0.3-0.3-0.5-0.8-0.5-1.4
		c0-0.6,0.2-1.1,0.5-1.4s0.7-0.5,1.2-0.5c0.5,0,0.9,0.2,1.2,0.5s0.5,0.8,0.5,1.4c0,0,0,0.1,0,0.2h-2.7c0,0.4,0.1,0.7,0.3,0.9
		s0.5,0.3,0.8,0.3c0.2,0,0.4-0.1,0.6-0.2S141.3,69.2,141.4,68.9z M139.4,67.9h2c0-0.3-0.1-0.5-0.2-0.7c-0.2-0.2-0.5-0.4-0.8-0.4
		c-0.3,0-0.5,0.1-0.7,0.3C139.5,67.4,139.4,67.6,139.4,67.9z"/>
	<path d="M146,71.6c-0.3-0.4-0.6-0.9-0.9-1.5s-0.4-1.2-0.4-1.8c0-0.5,0.1-1.1,0.3-1.6c0.2-0.6,0.5-1.2,1-1.7h0.4
		c-0.3,0.5-0.5,0.8-0.5,1c-0.1,0.3-0.2,0.6-0.3,1c-0.1,0.4-0.1,0.9-0.1,1.3c0,1.1,0.3,2.2,1,3.3H146z"/>
	<path d="M148.6,70.1l-1.9-5h0.7l1.3,3.6c0.1,0.3,0.2,0.6,0.3,0.8c0.1-0.3,0.2-0.5,0.3-0.8l1.4-3.6h0.7l-2,5H148.6z"/>
	<path d="M155.2,65.1h0.7V68c0,0.5-0.1,0.9-0.2,1.2s-0.3,0.5-0.6,0.7c-0.3,0.2-0.7,0.3-1.2,0.3c-0.5,0-0.9-0.1-1.2-0.2
		s-0.5-0.4-0.6-0.7c-0.1-0.3-0.2-0.7-0.2-1.3v-2.9h0.7V68c0,0.4,0,0.8,0.1,1c0.1,0.2,0.2,0.4,0.4,0.5c0.2,0.1,0.4,0.2,0.7,0.2
		c0.5,0,0.8-0.1,1-0.3s0.3-0.6,0.3-1.3V65.1z"/>
	<path d="M157.3,71.6h-0.4c0.7-1.1,1-2.2,1-3.3c0-0.4,0-0.9-0.1-1.3c-0.1-0.3-0.2-0.7-0.3-1c-0.1-0.2-0.3-0.5-0.6-1h0.4
		c0.4,0.6,0.7,1.1,1,1.7c0.2,0.5,0.3,1,0.3,1.6c0,0.6-0.1,1.2-0.4,1.8C157.9,70.7,157.6,71.2,157.3,71.6z"/>
</g>
<g>
	<path d="M109.7,82.8v-5h3.6v0.6h-3v1.5h2.8v0.6h-2.8v1.7h3.1v0.6H109.7z"/>
	<path d="M114.3,82.8v-3.6h0.6v0.5c0.3-0.4,0.7-0.6,1.2-0.6c0.2,0,0.4,0,0.6,0.1c0.2,0.1,0.3,0.2,0.4,0.3s0.2,0.3,0.2,0.5
		c0,0.1,0,0.3,0,0.6v2.2h-0.6v-2.2c0-0.3,0-0.4-0.1-0.6c0-0.1-0.1-0.2-0.3-0.3c-0.1-0.1-0.3-0.1-0.4-0.1c-0.3,0-0.5,0.1-0.7,0.2
		c-0.2,0.2-0.3,0.5-0.3,0.9v2H114.3z"/>
	<path d="M120.6,82.8v-0.5c-0.2,0.4-0.6,0.5-1,0.5c-0.3,0-0.6-0.1-0.8-0.2c-0.2-0.2-0.4-0.4-0.6-0.7c-0.1-0.3-0.2-0.6-0.2-1
		c0-0.4,0.1-0.7,0.2-1c0.1-0.3,0.3-0.5,0.5-0.7s0.5-0.2,0.8-0.2c0.2,0,0.4,0,0.6,0.1c0.2,0.1,0.3,0.2,0.4,0.4v-1.8h0.6v5H120.6z
		 M118.6,81c0,0.5,0.1,0.8,0.3,1s0.4,0.3,0.7,0.3c0.3,0,0.5-0.1,0.7-0.3c0.2-0.2,0.3-0.6,0.3-1c0-0.5-0.1-0.9-0.3-1.1
		s-0.4-0.3-0.7-0.3c-0.3,0-0.5,0.1-0.7,0.3C118.7,80.1,118.6,80.5,118.6,81z"/>
	<path d="M124.5,82.3c-0.2,0.2-0.4,0.3-0.7,0.4c-0.2,0.1-0.4,0.1-0.7,0.1c-0.4,0-0.7-0.1-0.9-0.3c-0.2-0.2-0.3-0.4-0.3-0.7
		c0-0.2,0-0.3,0.1-0.5c0.1-0.1,0.2-0.3,0.3-0.4c0.1-0.1,0.3-0.2,0.4-0.2c0.1,0,0.3-0.1,0.5-0.1c0.5-0.1,0.9-0.1,1.1-0.2
		c0-0.1,0-0.1,0-0.2c0-0.3-0.1-0.4-0.2-0.5c-0.2-0.1-0.4-0.2-0.7-0.2c-0.3,0-0.5,0.1-0.6,0.2c-0.1,0.1-0.2,0.3-0.3,0.5l-0.6-0.1
		c0.1-0.3,0.1-0.5,0.3-0.6c0.1-0.2,0.3-0.3,0.5-0.4c0.2-0.1,0.5-0.1,0.8-0.1c0.3,0,0.6,0,0.8,0.1s0.3,0.2,0.4,0.3
		c0.1,0.1,0.2,0.2,0.2,0.4c0,0.1,0,0.3,0,0.6v0.8c0,0.6,0,0.9,0,1.1c0,0.2,0.1,0.3,0.2,0.4h-0.6C124.5,82.7,124.5,82.5,124.5,82.3z
		 M124.4,81c-0.2,0.1-0.6,0.2-1,0.2c-0.3,0-0.4,0.1-0.5,0.1s-0.2,0.1-0.2,0.2c-0.1,0.1-0.1,0.2-0.1,0.3c0,0.2,0.1,0.3,0.2,0.4
		c0.1,0.1,0.3,0.2,0.5,0.2c0.2,0,0.4-0.1,0.6-0.2c0.2-0.1,0.3-0.2,0.4-0.4c0.1-0.1,0.1-0.3,0.1-0.6V81z"/>
	<path d="M126,82.8v-3.6h0.6v0.5c0.3-0.4,0.7-0.6,1.2-0.6c0.2,0,0.4,0,0.6,0.1c0.2,0.1,0.3,0.2,0.4,0.3s0.2,0.3,0.2,0.5
		c0,0.1,0,0.3,0,0.6v2.2h-0.6v-2.2c0-0.3,0-0.4-0.1-0.6c0-0.1-0.1-0.2-0.3-0.3c-0.1-0.1-0.3-0.1-0.4-0.1c-0.3,0-0.5,0.1-0.7,0.2
		c-0.2,0.2-0.3,0.5-0.3,0.9v2H126z"/>
	<path d="M129.8,83.1l0.6,0.1c0,0.2,0.1,0.3,0.2,0.4c0.2,0.1,0.4,0.2,0.6,0.2c0.3,0,0.5-0.1,0.7-0.2s0.3-0.3,0.3-0.5
		c0-0.1,0-0.4,0-0.8c-0.3,0.3-0.6,0.5-1,0.5c-0.5,0-0.9-0.2-1.2-0.5s-0.4-0.8-0.4-1.3c0-0.3,0.1-0.7,0.2-1c0.1-0.3,0.3-0.5,0.5-0.7
		c0.2-0.2,0.5-0.2,0.8-0.2c0.4,0,0.8,0.2,1.1,0.5v-0.4h0.6v3.1c0,0.6-0.1,1-0.2,1.2c-0.1,0.2-0.3,0.4-0.5,0.6
		c-0.2,0.1-0.6,0.2-0.9,0.2c-0.4,0-0.8-0.1-1-0.3C129.9,83.8,129.8,83.5,129.8,83.1z M130.3,80.9c0,0.5,0.1,0.8,0.3,1
		s0.4,0.3,0.7,0.3c0.3,0,0.5-0.1,0.7-0.3c0.2-0.2,0.3-0.6,0.3-1c0-0.4-0.1-0.8-0.3-1c-0.2-0.2-0.4-0.3-0.7-0.3
		c-0.3,0-0.5,0.1-0.7,0.3C130.4,80.1,130.3,80.5,130.3,80.9z"/>
	<path d="M136.3,81.6l0.6,0.1c-0.1,0.4-0.3,0.7-0.6,0.9s-0.6,0.3-1,0.3c-0.5,0-1-0.2-1.3-0.5c-0.3-0.3-0.5-0.8-0.5-1.4
		c0-0.6,0.2-1.1,0.5-1.4s0.7-0.5,1.2-0.5c0.5,0,0.9,0.2,1.2,0.5s0.5,0.8,0.5,1.4c0,0,0,0.1,0,0.2h-2.7c0,0.4,0.1,0.7,0.3,0.9
		s0.5,0.3,0.8,0.3c0.2,0,0.4-0.1,0.6-0.2S136.2,81.9,136.3,81.6z M134.2,80.6h2c0-0.3-0.1-0.5-0.2-0.7c-0.2-0.2-0.5-0.4-0.8-0.4
		c-0.3,0-0.5,0.1-0.7,0.3C134.4,80.1,134.3,80.3,134.2,80.6z"/>
	<path d="M137.7,82.8v-3.6h0.6v0.6c0.1-0.3,0.3-0.4,0.4-0.5c0.1-0.1,0.3-0.1,0.4-0.1c0.2,0,0.4,0.1,0.6,0.2l-0.2,0.6
		c-0.2-0.1-0.3-0.1-0.5-0.1c-0.1,0-0.3,0-0.4,0.1c-0.1,0.1-0.2,0.2-0.2,0.3c-0.1,0.2-0.1,0.5-0.1,0.7v1.9H137.7z"/>
	<path d="M142.5,81.6l0.6,0.1c-0.1,0.4-0.3,0.7-0.6,0.9s-0.6,0.3-1,0.3c-0.5,0-1-0.2-1.3-0.5c-0.3-0.3-0.5-0.8-0.5-1.4
		c0-0.6,0.2-1.1,0.5-1.4s0.7-0.5,1.2-0.5c0.5,0,0.9,0.2,1.2,0.5s0.5,0.8,0.5,1.4c0,0,0,0.1,0,0.2h-2.7c0,0.4,0.1,0.7,0.3,0.9
		s0.5,0.3,0.8,0.3c0.2,0,0.4-0.1,0.6-0.2S142.4,81.9,142.5,81.6z M140.5,80.6h2c0-0.3-0.1-0.5-0.2-0.7c-0.2-0.2-0.5-0.4-0.8-0.4
		c-0.3,0-0.5,0.1-0.7,0.3C140.6,80.1,140.5,80.3,140.5,80.6z"/>
	<path d="M146.2,82.8v-0.5c-0.2,0.4-0.6,0.5-1,0.5c-0.3,0-0.6-0.1-0.8-0.2c-0.2-0.2-0.4-0.4-0.6-0.7c-0.1-0.3-0.2-0.6-0.2-1
		c0-0.4,0.1-0.7,0.2-1c0.1-0.3,0.3-0.5,0.5-0.7s0.5-0.2,0.8-0.2c0.2,0,0.4,0,0.6,0.1c0.2,0.1,0.3,0.2,0.4,0.4v-1.8h0.6v5H146.2z
		 M144.3,81c0,0.5,0.1,0.8,0.3,1s0.4,0.3,0.7,0.3c0.3,0,0.5-0.1,0.7-0.3c0.2-0.2,0.3-0.6,0.3-1c0-0.5-0.1-0.9-0.3-1.1
		s-0.4-0.3-0.7-0.3c-0.3,0-0.5,0.1-0.7,0.3C144.4,80.1,144.3,80.5,144.3,81z"/>
	<path d="M150.9,84.3c-0.3-0.4-0.6-0.9-0.9-1.5s-0.4-1.2-0.4-1.8c0-0.5,0.1-1.1,0.3-1.6c0.2-0.6,0.5-1.2,1-1.7h0.4
		c-0.3,0.5-0.5,0.8-0.5,1c-0.1,0.3-0.2,0.6-0.3,1c-0.1,0.4-0.1,0.9-0.1,1.3c0,1.1,0.3,2.2,1,3.3H150.9z"/>
	<path d="M152.2,82.8v-5h3.6v0.6h-3v1.5h2.8v0.6h-2.8v1.7h3.1v0.6H152.2z"/>
	<path d="M156.8,82.8v-5h0.7l2.6,3.9v-3.9h0.6v5h-0.7l-2.6-3.9v3.9H156.8z"/>
	<path d="M162.2,84.3h-0.4c0.7-1.1,1-2.2,1-3.3c0-0.4,0-0.9-0.1-1.3c-0.1-0.3-0.2-0.7-0.3-1c-0.1-0.2-0.3-0.5-0.6-1h0.4
		c0.4,0.6,0.7,1.1,1,1.7c0.2,0.5,0.3,1,0.3,1.6c0,0.6-0.1,1.2-0.4,1.8C162.8,83.3,162.5,83.8,162.2,84.3z"/>
</g>
<g>
	<path d="M113.3,93.7l0.7,0.2c-0.1,0.5-0.4,1-0.8,1.2c-0.4,0.3-0.8,0.4-1.3,0.4c-0.5,0-1-0.1-1.3-0.3c-0.3-0.2-0.6-0.5-0.8-1
		c-0.2-0.4-0.3-0.9-0.3-1.3c0-0.5,0.1-1,0.3-1.4c0.2-0.4,0.5-0.7,0.9-0.9c0.4-0.2,0.8-0.3,1.2-0.3c0.5,0,0.9,0.1,1.3,0.4
		s0.6,0.6,0.7,1.1l-0.7,0.2c-0.1-0.4-0.3-0.6-0.5-0.8s-0.5-0.2-0.8-0.2c-0.4,0-0.7,0.1-1,0.3c-0.3,0.2-0.4,0.4-0.5,0.7
		c-0.1,0.3-0.2,0.6-0.2,1c0,0.4,0.1,0.8,0.2,1.1c0.1,0.3,0.3,0.6,0.6,0.7s0.5,0.2,0.9,0.2c0.4,0,0.7-0.1,0.9-0.3
		S113.2,94.1,113.3,93.7z"/>
	<path d="M114.7,95.5v-3.6h0.6v0.6c0.1-0.3,0.3-0.4,0.4-0.5c0.1-0.1,0.3-0.1,0.4-0.1c0.2,0,0.4,0.1,0.6,0.2l-0.2,0.6
		c-0.2-0.1-0.3-0.1-0.5-0.1c-0.1,0-0.3,0-0.4,0.1c-0.1,0.1-0.2,0.2-0.2,0.3c-0.1,0.2-0.1,0.5-0.1,0.7v1.9H114.7z"/>
	<path d="M117,91.2v-0.7h0.6v0.7H117z M117,95.5v-3.6h0.6v3.6H117z"/>
	<path d="M119.9,94.9l0.1,0.5c-0.2,0-0.3,0.1-0.5,0.1c-0.2,0-0.4,0-0.5-0.1s-0.2-0.2-0.3-0.3c-0.1-0.1-0.1-0.4-0.1-0.7v-2.1h-0.5
		v-0.5h0.5v-0.9l0.6-0.4v1.3h0.6v0.5h-0.6v2.1c0,0.2,0,0.3,0,0.3c0,0.1,0.1,0.1,0.1,0.1c0,0,0.1,0,0.2,0
		C119.7,94.9,119.8,94.9,119.9,94.9z"/>
	<path d="M120.5,91.2v-0.7h0.6v0.7H120.5z M120.5,95.5v-3.6h0.6v3.6H120.5z"/>
	<path d="M124.5,94.1l0.6,0.1c-0.1,0.4-0.2,0.7-0.5,1c-0.3,0.2-0.6,0.4-1,0.4c-0.5,0-0.9-0.2-1.2-0.5c-0.3-0.3-0.5-0.8-0.5-1.4
		c0-0.4,0.1-0.7,0.2-1s0.3-0.5,0.6-0.7c0.3-0.1,0.6-0.2,0.9-0.2c0.4,0,0.7,0.1,1,0.3c0.3,0.2,0.4,0.5,0.5,0.8l-0.6,0.1
		c-0.1-0.2-0.2-0.4-0.3-0.6c-0.1-0.1-0.3-0.2-0.5-0.2c-0.3,0-0.6,0.1-0.8,0.3c-0.2,0.2-0.3,0.6-0.3,1.1c0,0.5,0.1,0.8,0.3,1.1
		s0.4,0.3,0.7,0.3c0.2,0,0.4-0.1,0.6-0.2S124.4,94.4,124.5,94.1z"/>
	<path d="M128,95c-0.2,0.2-0.4,0.3-0.7,0.4c-0.2,0.1-0.4,0.1-0.7,0.1c-0.4,0-0.7-0.1-0.9-0.3c-0.2-0.2-0.3-0.4-0.3-0.7
		c0-0.2,0-0.3,0.1-0.5c0.1-0.1,0.2-0.3,0.3-0.4c0.1-0.1,0.3-0.2,0.4-0.2c0.1,0,0.3-0.1,0.5-0.1c0.5-0.1,0.9-0.1,1.1-0.2
		c0-0.1,0-0.1,0-0.2c0-0.3-0.1-0.4-0.2-0.5c-0.2-0.1-0.4-0.2-0.7-0.2c-0.3,0-0.5,0.1-0.6,0.2c-0.1,0.1-0.2,0.3-0.3,0.5l-0.6-0.1
		c0.1-0.3,0.1-0.5,0.3-0.6c0.1-0.2,0.3-0.3,0.5-0.4c0.2-0.1,0.5-0.1,0.8-0.1c0.3,0,0.6,0,0.8,0.1s0.3,0.2,0.4,0.3
		c0.1,0.1,0.2,0.2,0.2,0.4c0,0.1,0,0.3,0,0.6v0.8c0,0.6,0,0.9,0,1.1c0,0.2,0.1,0.3,0.2,0.4h-0.6C128,95.3,128,95.2,128,95z
		 M127.9,93.6c-0.2,0.1-0.6,0.2-1,0.2c-0.3,0-0.4,0.1-0.5,0.1s-0.2,0.1-0.2,0.2c-0.1,0.1-0.1,0.2-0.1,0.3c0,0.2,0.1,0.3,0.2,0.4
		c0.1,0.1,0.3,0.2,0.5,0.2c0.2,0,0.4-0.1,0.6-0.2c0.2-0.1,0.3-0.2,0.4-0.4c0.1-0.1,0.1-0.3,0.1-0.6V93.6z"/>
	<path d="M129.5,95.5v-5h0.6v5H129.5z"/>
	<path d="M131,95.5v-5h0.6v5H131z"/>
	<path d="M132.6,96.9l-0.1-0.6c0.1,0,0.3,0.1,0.4,0.1c0.1,0,0.2,0,0.3-0.1s0.1-0.1,0.2-0.2c0-0.1,0.1-0.2,0.2-0.5c0,0,0-0.1,0.1-0.2
		l-1.4-3.6h0.7l0.8,2.1c0.1,0.3,0.2,0.5,0.3,0.8c0.1-0.3,0.2-0.6,0.3-0.8l0.8-2.1h0.6l-1.4,3.7c-0.1,0.4-0.3,0.7-0.3,0.8
		c-0.1,0.2-0.2,0.4-0.4,0.4c-0.1,0.1-0.3,0.1-0.5,0.1C132.8,96.9,132.7,96.9,132.6,96.9z"/>
	<path d="M138.1,95.5v-5h3.6V91h-3v1.5h2.8v0.6h-2.8v1.7h3.1v0.6H138.1z"/>
	<path d="M142.7,95.5v-3.6h0.6v0.5c0.3-0.4,0.7-0.6,1.2-0.6c0.2,0,0.4,0,0.6,0.1c0.2,0.1,0.3,0.2,0.4,0.3s0.2,0.3,0.2,0.5
		c0,0.1,0,0.3,0,0.6v2.2H145v-2.2c0-0.3,0-0.4-0.1-0.6c0-0.1-0.1-0.2-0.3-0.3c-0.1-0.1-0.3-0.1-0.4-0.1c-0.3,0-0.5,0.1-0.7,0.2
		c-0.2,0.2-0.3,0.5-0.3,0.9v2H142.7z"/>
	<path d="M148.9,95.5V95c-0.2,0.4-0.6,0.5-1,0.5c-0.3,0-0.6-0.1-0.8-0.2c-0.2-0.2-0.4-0.4-0.6-0.7c-0.1-0.3-0.2-0.6-0.2-1
		c0-0.4,0.1-0.7,0.2-1c0.1-0.3,0.3-0.5,0.5-0.7s0.5-0.2,0.8-0.2c0.2,0,0.4,0,0.6,0.1c0.2,0.1,0.3,0.2,0.4,0.4v-1.8h0.6v5H148.9z
		 M147,93.7c0,0.5,0.1,0.8,0.3,1s0.4,0.3,0.7,0.3c0.3,0,0.5-0.1,0.7-0.3c0.2-0.2,0.3-0.6,0.3-1c0-0.5-0.1-0.9-0.3-1.1
		s-0.4-0.3-0.7-0.3c-0.3,0-0.5,0.1-0.7,0.3C147.1,92.8,147,93.2,147,93.7z"/>
	<path d="M152.9,95c-0.2,0.2-0.4,0.3-0.7,0.4c-0.2,0.1-0.4,0.1-0.7,0.1c-0.4,0-0.7-0.1-0.9-0.3c-0.2-0.2-0.3-0.4-0.3-0.7
		c0-0.2,0-0.3,0.1-0.5c0.1-0.1,0.2-0.3,0.3-0.4c0.1-0.1,0.3-0.2,0.4-0.2c0.1,0,0.3-0.1,0.5-0.1c0.5-0.1,0.9-0.1,1.1-0.2
		c0-0.1,0-0.1,0-0.2c0-0.3-0.1-0.4-0.2-0.5c-0.2-0.1-0.4-0.2-0.7-0.2c-0.3,0-0.5,0.1-0.6,0.2c-0.1,0.1-0.2,0.3-0.3,0.5l-0.6-0.1
		c0.1-0.3,0.1-0.5,0.3-0.6c0.1-0.2,0.3-0.3,0.5-0.4c0.2-0.1,0.5-0.1,0.8-0.1c0.3,0,0.6,0,0.8,0.1s0.3,0.2,0.4,0.3
		c0.1,0.1,0.2,0.2,0.2,0.4c0,0.1,0,0.3,0,0.6v0.8c0,0.6,0,0.9,0,1.1c0,0.2,0.1,0.3,0.2,0.4H153C152.9,95.3,152.9,95.2,152.9,95z
		 M152.8,93.6c-0.2,0.1-0.6,0.2-1,0.2c-0.3,0-0.4,0.1-0.5,0.1s-0.2,0.1-0.2,0.2c-0.1,0.1-0.1,0.2-0.1,0.3c0,0.2,0.1,0.3,0.2,0.4
		c0.1,0.1,0.3,0.2,0.5,0.2c0.2,0,0.4-0.1,0.6-0.2c0.2-0.1,0.3-0.2,0.4-0.4c0.1-0.1,0.1-0.3,0.1-0.6V93.6z"/>
	<path d="M154.4,95.5v-3.6h0.6v0.5c0.3-0.4,0.7-0.6,1.2-0.6c0.2,0,0.4,0,0.6,0.1c0.2,0.1,0.3,0.2,0.4,0.3s0.2,0.3,0.2,0.5
		c0,0.1,0,0.3,0,0.6v2.2h-0.6v-2.2c0-0.3,0-0.4-0.1-0.6c0-0.1-0.1-0.2-0.3-0.3c-0.1-0.1-0.3-0.1-0.4-0.1c-0.3,0-0.5,0.1-0.7,0.2
		c-0.2,0.2-0.3,0.5-0.3,0.9v2H154.4z"/>
	<path d="M158.2,95.8l0.6,0.1c0,0.2,0.1,0.3,0.2,0.4c0.2,0.1,0.4,0.2,0.6,0.2c0.3,0,0.5-0.1,0.7-0.2s0.3-0.3,0.3-0.5
		c0-0.1,0-0.4,0-0.8c-0.3,0.3-0.6,0.5-1,0.5c-0.5,0-0.9-0.2-1.2-0.5s-0.4-0.8-0.4-1.3c0-0.3,0.1-0.7,0.2-1c0.1-0.3,0.3-0.5,0.5-0.7
		c0.2-0.2,0.5-0.2,0.8-0.2c0.4,0,0.8,0.2,1.1,0.5v-0.4h0.6V95c0,0.6-0.1,1-0.2,1.2c-0.1,0.2-0.3,0.4-0.5,0.6
		c-0.2,0.1-0.6,0.2-0.9,0.2c-0.4,0-0.8-0.1-1-0.3C158.3,96.5,158.1,96.2,158.2,95.8z M158.7,93.6c0,0.5,0.1,0.8,0.3,1
		s0.4,0.3,0.7,0.3c0.3,0,0.5-0.1,0.7-0.3c0.2-0.2,0.3-0.6,0.3-1c0-0.4-0.1-0.8-0.3-1c-0.2-0.2-0.4-0.3-0.7-0.3
		c-0.3,0-0.5,0.1-0.7,0.3C158.8,92.8,158.7,93.2,158.7,93.6z"/>
	<path d="M164.6,94.3l0.6,0.1c-0.1,0.4-0.3,0.7-0.6,0.9s-0.6,0.3-1,0.3c-0.5,0-1-0.2-1.3-0.5c-0.3-0.3-0.5-0.8-0.5-1.4
		c0-0.6,0.2-1.1,0.5-1.4s0.7-0.5,1.2-0.5c0.5,0,0.9,0.2,1.2,0.5s0.5,0.8,0.5,1.4c0,0,0,0.1,0,0.2h-2.7c0,0.4,0.1,0.7,0.3,0.9
		s0.5,0.3,0.8,0.3c0.2,0,0.4-0.1,0.6-0.2S164.6,94.6,164.6,94.3z M162.6,93.3h2c0-0.3-0.1-0.5-0.2-0.7c-0.2-0.2-0.5-0.4-0.8-0.4
		c-0.3,0-0.5,0.1-0.7,0.3C162.8,92.7,162.6,93,162.6,93.3z"/>
	<path d="M166.1,95.5v-3.6h0.6v0.6c0.1-0.3,0.3-0.4,0.4-0.5c0.1-0.1,0.3-0.1,0.4-0.1c0.2,0,0.4,0.1,0.6,0.2l-0.2,0.6
		c-0.2-0.1-0.3-0.1-0.5-0.1c-0.1,0-0.3,0-0.4,0.1c-0.1,0.1-0.2,0.2-0.2,0.3c-0.1,0.2-0.1,0.5-0.1,0.7v1.9H166.1z"/>
	<path d="M170.9,94.3l0.6,0.1c-0.1,0.4-0.3,0.7-0.6,0.9s-0.6,0.3-1,0.3c-0.5,0-1-0.2-1.3-0.5c-0.3-0.3-0.5-0.8-0.5-1.4
		c0-0.6,0.2-1.1,0.5-1.4s0.7-0.5,1.2-0.5c0.5,0,0.9,0.2,1.2,0.5s0.5,0.8,0.5,1.4c0,0,0,0.1,0,0.2h-2.7c0,0.4,0.1,0.7,0.3,0.9
		s0.5,0.3,0.8,0.3c0.2,0,0.4-0.1,0.6-0.2S170.8,94.6,170.9,94.3z M168.9,93.3h2c0-0.3-0.1-0.5-0.2-0.7c-0.2-0.2-0.5-0.4-0.8-0.4
		c-0.3,0-0.5,0.1-0.7,0.3C169,92.7,168.9,93,168.9,93.3z"/>
	<path d="M174.6,95.5V95c-0.2,0.4-0.6,0.5-1,0.5c-0.3,0-0.6-0.1-0.8-0.2c-0.2-0.2-0.4-0.4-0.6-0.7c-0.1-0.3-0.2-0.6-0.2-1
		c0-0.4,0.1-0.7,0.2-1c0.1-0.3,0.3-0.5,0.5-0.7s0.5-0.2,0.8-0.2c0.2,0,0.4,0,0.6,0.1c0.2,0.1,0.3,0.2,0.4,0.4v-1.8h0.6v5H174.6z
		 M172.7,93.7c0,0.5,0.1,0.8,0.3,1s0.4,0.3,0.7,0.3c0.3,0,0.5-0.1,0.7-0.3c0.2-0.2,0.3-0.6,0.3-1c0-0.5-0.1-0.9-0.3-1.1
		s-0.4-0.3-0.7-0.3c-0.3,0-0.5,0.1-0.7,0.3C172.8,92.8,172.7,93.2,172.7,93.7z"/>
	<path d="M179.3,96.9c-0.3-0.4-0.6-0.9-0.9-1.5s-0.4-1.2-0.4-1.8c0-0.5,0.1-1.1,0.3-1.6c0.2-0.6,0.5-1.2,1-1.7h0.4
		c-0.3,0.5-0.5,0.8-0.5,1c-0.1,0.3-0.2,0.6-0.3,1c-0.1,0.4-0.1,0.9-0.1,1.3c0,1.1,0.3,2.2,1,3.3H179.3z"/>
	<path d="M184.1,93.7l0.7,0.2c-0.1,0.5-0.4,1-0.8,1.2c-0.4,0.3-0.8,0.4-1.3,0.4c-0.5,0-1-0.1-1.3-0.3c-0.3-0.2-0.6-0.5-0.8-1
		c-0.2-0.4-0.3-0.9-0.3-1.3c0-0.5,0.1-1,0.3-1.4c0.2-0.4,0.5-0.7,0.9-0.9c0.4-0.2,0.8-0.3,1.2-0.3c0.5,0,0.9,0.1,1.3,0.4
		s0.6,0.6,0.7,1.1L184,92c-0.1-0.4-0.3-0.6-0.5-0.8s-0.5-0.2-0.8-0.2c-0.4,0-0.7,0.1-1,0.3c-0.3,0.2-0.4,0.4-0.5,0.7
		c-0.1,0.3-0.2,0.6-0.2,1c0,0.4,0.1,0.8,0.2,1.1c0.1,0.3,0.3,0.6,0.6,0.7s0.5,0.2,0.9,0.2c0.4,0,0.7-0.1,0.9-0.3
		S184,94.1,184.1,93.7z"/>
	<path d="M185.6,95.5v-5h2.2c0.4,0,0.8,0,1,0.1c0.2,0.1,0.4,0.2,0.6,0.5s0.2,0.5,0.2,0.8c0,0.4-0.1,0.7-0.3,0.9s-0.6,0.4-1.1,0.5
		c0.2,0.1,0.3,0.2,0.4,0.2c0.2,0.2,0.4,0.4,0.6,0.7l0.9,1.4h-0.8l-0.7-1c-0.2-0.3-0.4-0.5-0.5-0.7s-0.2-0.3-0.3-0.3
		c-0.1-0.1-0.2-0.1-0.3-0.1c-0.1,0-0.2,0-0.4,0h-0.8v2.2H185.6z M186.3,92.7h1.4c0.3,0,0.5,0,0.7-0.1c0.2-0.1,0.3-0.2,0.4-0.3
		c0.1-0.1,0.1-0.3,0.1-0.4c0-0.2-0.1-0.4-0.3-0.6c-0.2-0.2-0.4-0.2-0.8-0.2h-1.6V92.7z"/>
	<path d="M191,96.9h-0.4c0.7-1.1,1-2.2,1-3.3c0-0.4,0-0.9-0.1-1.3c-0.1-0.3-0.2-0.7-0.3-1c-0.1-0.2-0.3-0.5-0.6-1h0.4
		c0.4,0.6,0.7,1.1,1,1.7c0.2,0.5,0.3,1,0.3,1.6c0,0.6-0.1,1.2-0.4,1.8C191.6,96,191.3,96.5,191,96.9z"/>
</g>
</svg>
